<?xml version="1.0" standalone="no"?>
<!DOCTYPE svg PUBLIC "-//W3C//DTD SVG 1.1//EN" "http://www.w3.org/Graphics/SVG/1.1/DTD/svg11.dtd">
<svg width="124mm" height="8mm" viewBox="-1 -8 124 8" xmlns="http://www.w3.org/2000/svg" version="1.1">
<title>OpenSCAD Model</title>
<path d="
M 20.9726,-5.31099 L 19.4797,-5.31099 L 19.4851,-5.32353 L 19.4908,-5.33612 L 19.4969,-5.34875 L 19.5032,-5.36143
 L 19.5098,-5.37416 L 19.5167,-5.38693 L 19.5239,-5.39975 L 19.5314,-5.41261 L 19.5392,-5.42552 L 19.5473,-5.43848
 L 19.5556,-5.45148 L 19.5643,-5.46452 L 19.5732,-5.47762 L 19.5824,-5.49074 L 19.592,-5.50392 L 19.6018,-5.51715
 L 19.6119,-5.53041 L 19.6223,-5.54373 L 19.633,-5.5571 L 19.644,-5.5705 L 19.6552,-5.58395 L 19.6668,-5.59744
 L 19.6787,-5.61099 L 19.6908,-5.62463 L 19.7034,-5.6384 L 19.7163,-5.65231 L 19.7296,-5.66637 L 19.7432,-5.68057
 L 19.7572,-5.6949 L 19.7715,-5.70938 L 19.7863,-5.72398 L 19.8014,-5.73874 L 19.8168,-5.75363 L 19.8326,-5.76868
 L 19.8488,-5.78384 L 19.8653,-5.79916 L 19.8822,-5.81462 L 19.8995,-5.83022 L 19.9171,-5.84595 L 19.9351,-5.86182
 L 19.9535,-5.87782 L 19.9722,-5.89398 L 19.9913,-5.91028 L 20.0107,-5.92671 L 20.0305,-5.94328 L 20.0871,-5.99017
 L 20.1225,-6.01964 L 20.1568,-6.04843 L 20.1902,-6.07651 L 20.2224,-6.10391 L 20.2537,-6.1306 L 20.2839,-6.1566
 L 20.313,-6.1819 L 20.3411,-6.20651 L 20.3682,-6.23042 L 20.3943,-6.25365 L 20.4193,-6.27617 L 20.4432,-6.29799
 L 20.4661,-6.31912 L 20.488,-6.33955 L 20.5089,-6.3593 L 20.5287,-6.37834 L 20.5474,-6.39668 L 20.5652,-6.41434
 L 20.5818,-6.43129 L 20.5975,-6.44756 L 20.6121,-6.46312 L 20.6256,-6.478 L 20.6386,-6.49251 L 20.6513,-6.50703
 L 20.6638,-6.52156 L 20.6759,-6.53607 L 20.6878,-6.5506 L 20.6993,-6.56512 L 20.7106,-6.57965 L 20.7216,-6.59416
 L 20.7323,-6.60869 L 20.7428,-6.62321 L 20.7529,-6.63773 L 20.7628,-6.65225 L 20.7724,-6.66678 L 20.7817,-6.68129
 L 20.7907,-6.69582 L 20.7994,-6.71034 L 20.8079,-6.72487 L 20.8161,-6.73938 L 20.8239,-6.75391 L 20.8315,-6.76843
 L 20.8389,-6.78294 L 20.8459,-6.79747 L 20.8526,-6.812 L 20.8591,-6.82652 L 20.8653,-6.84105 L 20.8712,-6.85559
 L 20.8768,-6.87013 L 20.8821,-6.88469 L 20.8871,-6.89926 L 20.8919,-6.91383 L 20.8963,-6.92841 L 20.9005,-6.94299
 L 20.9044,-6.95758 L 20.908,-6.97218 L 20.9113,-6.9868 L 20.9143,-7.00142 L 20.917,-7.01604 L 20.9194,-7.03067
 L 20.9216,-7.0453 L 20.9235,-7.05995 L 20.925,-7.07462 L 20.9263,-7.08926 L 20.9274,-7.10394 L 20.9281,-7.11862
 L 20.9285,-7.1333 L 20.9286,-7.14799 L 20.9282,-7.18088 L 20.9269,-7.2131 L 20.9247,-7.24467 L 20.9216,-7.27557
 L 20.9176,-7.3058 L 20.9128,-7.33539 L 20.9071,-7.3643 L 20.9005,-7.39256 L 20.893,-7.42015 L 20.8846,-7.44708
 L 20.8754,-7.47336 L 20.8652,-7.49896 L 20.8542,-7.52391 L 20.8423,-7.5482 L 20.8295,-7.57182 L 20.8159,-7.59479
 L 20.8014,-7.61708 L 20.7859,-7.63872 L 20.7696,-7.6597 L 20.7525,-7.68001 L 20.7344,-7.69968 L 20.7155,-7.71866
 L 20.6956,-7.737 L 20.6751,-7.75461 L 20.6538,-7.77142 L 20.6317,-7.78748 L 20.6089,-7.80273 L 20.5853,-7.81721
 L 20.5609,-7.8309 L 20.5358,-7.84381 L 20.5099,-7.85594 L 20.4833,-7.86729 L 20.4559,-7.87787 L 20.4277,-7.88765
 L 20.3988,-7.89664 L 20.3692,-7.90486 L 20.3387,-7.91229 L 20.3075,-7.91895 L 20.2756,-7.92482 L 20.2429,-7.9299
 L 20.2094,-7.9342 L 20.1752,-7.93773 L 20.1402,-7.94048 L 20.1044,-7.94243 L 20.0679,-7.9436 L 20.0306,-7.94398
 L 19.9967,-7.9436 L 19.9632,-7.94246 L 19.9303,-7.94054 L 19.8979,-7.93785 L 19.8661,-7.9344 L 19.8348,-7.93018
 L 19.8041,-7.92519 L 19.7739,-7.91943 L 19.7442,-7.9129 L 19.7151,-7.90562 L 19.6865,-7.89755 L 19.6585,-7.88873
 L 19.631,-7.87914 L 19.604,-7.86877 L 19.5776,-7.85765 L 19.5517,-7.84575 L 19.5264,-7.83308 L 19.5015,-7.81966
 L 19.4773,-7.80547 L 19.4536,-7.7905 L 19.4304,-7.77477 L 19.4078,-7.75826 L 19.3857,-7.741 L 19.3642,-7.72307
 L 19.3436,-7.70464 L 19.3238,-7.68565 L 19.3047,-7.66615 L 19.2865,-7.64612 L 19.269,-7.62555 L 19.2523,-7.60446
 L 19.2365,-7.58284 L 19.2214,-7.56068 L 19.2071,-7.53801 L 19.1936,-7.5148 L 19.1809,-7.49106 L 19.169,-7.46678
 L 19.1579,-7.44199 L 19.1476,-7.41666 L 19.1381,-7.39081 L 19.1293,-7.36443 L 19.1214,-7.33751 L 19.1143,-7.31006
 L 19.1079,-7.28209 L 19.1024,-7.25359 L 19.0976,-7.22455 L 19.0937,-7.19499 L 19.4677,-7.15999 L 19.4702,-7.17972
 L 19.4731,-7.19905 L 19.4766,-7.218 L 19.4805,-7.23656 L 19.4849,-7.25473 L 19.4897,-7.27252 L 19.4951,-7.28993
 L 19.5009,-7.30696 L 19.5071,-7.32359 L 19.5139,-7.33984 L 19.5211,-7.3557 L 19.5288,-7.37119 L 19.537,-7.38628
 L 19.5456,-7.40099 L 19.5547,-7.4153 L 19.5643,-7.42924 L 19.5744,-7.44279 L 19.5849,-7.45595 L 19.5959,-7.46873
 L 19.6074,-7.48112 L 19.6193,-7.49313 L 19.6318,-7.50476 L 19.6447,-7.51599 L 19.658,-7.52679 L 19.6717,-7.53712
 L 19.6857,-7.54697 L 19.7,-7.55632 L 19.7146,-7.5652 L 19.7295,-7.57361 L 19.7448,-7.58153 L 19.7603,-7.58897
 L 19.7762,-7.59593 L 19.7923,-7.60242 L 19.8088,-7.60843 L 19.8256,-7.61394 L 19.8427,-7.61899 L 19.8601,-7.62355
 L 19.8778,-7.62762 L 19.8958,-7.63123 L 19.9142,-7.63435 L 19.9328,-7.63699 L 19.9518,-7.63914 L 19.971,-7.64084
 L 19.9906,-7.64203 L 20.0105,-7.64275 L 20.0306,-7.64299 L 20.0518,-7.64275 L 20.0726,-7.64198 L 20.093,-7.64073
 L 20.1129,-7.63898 L 20.1325,-7.6367 L 20.1516,-7.63394 L 20.1704,-7.63068 L 20.1887,-7.62691 L 20.2066,-7.62263
 L 20.2241,-7.61784 L 20.2412,-7.61256 L 20.2579,-7.60678 L 20.2742,-7.60051 L 20.2901,-7.59372 L 20.3056,-7.58643
 L 20.3206,-7.57863 L 20.3353,-7.57033 L 20.3495,-7.56154 L 20.3634,-7.55223 L 20.3768,-7.54242 L 20.3898,-7.53212
 L 20.4024,-7.5213 L 20.4146,-7.50999 L 20.4264,-7.49823 L 20.4376,-7.48604 L 20.4483,-7.47346 L 20.4585,-7.46046
 L 20.4681,-7.44707 L 20.4772,-7.43326 L 20.4859,-7.41904 L 20.4939,-7.4044 L 20.5015,-7.38937 L 20.5086,-7.37393
 L 20.5151,-7.35808 L 20.5211,-7.34181 L 20.5266,-7.32513 L 20.5315,-7.30806 L 20.5359,-7.29057 L 20.5399,-7.27269
 L 20.5433,-7.25438 L 20.5461,-7.23567 L 20.5485,-7.21655 L 20.5503,-7.19702 L 20.5516,-7.17709 L 20.5524,-7.15674
 L 20.5526,-7.13599 L 20.5525,-7.12067 L 20.552,-7.10548 L 20.5513,-7.09042 L 20.5502,-7.07552 L 20.5488,-7.06073
 L 20.5471,-7.0461 L 20.5451,-7.03159 L 20.5428,-7.01721 L 20.5402,-7.00298 L 20.5373,-6.98889 L 20.5341,-6.97493
 L 20.5306,-6.96109 L 20.5268,-6.9474 L 20.5226,-6.93385 L 20.5182,-6.92044 L 20.5134,-6.90715 L 20.5084,-6.89401
 L 20.503,-6.881 L 20.4974,-6.86812 L 20.4914,-6.85539 L 20.4851,-6.84279 L 20.4785,-6.83032 L 20.4716,-6.81799
 L 20.4646,-6.80585 L 20.4574,-6.79373 L 20.4499,-6.78168 L 20.4423,-6.76965 L 20.4345,-6.75769 L 20.4265,-6.74576
 L 20.4183,-6.73389 L 20.4099,-6.72205 L 20.4014,-6.71027 L 20.3926,-6.69852 L 20.3837,-6.68683 L 20.3746,-6.67517
 L 20.3652,-6.66356 L 20.3557,-6.65201 L 20.346,-6.64049 L 20.3362,-6.62901 L 20.3261,-6.61758 L 20.3158,-6.60622
 L 20.3053,-6.59488 L 20.2947,-6.58359 L 20.2839,-6.57234 L 20.2729,-6.56114 L 20.2616,-6.54999 L 20.2503,-6.53894
 L 20.2388,-6.52789 L 20.2272,-6.51685 L 20.2155,-6.50578 L 20.2036,-6.49472 L 20.1916,-6.48366 L 20.1796,-6.4726
 L 20.1673,-6.46152 L 20.155,-6.45045 L 20.1425,-6.43936 L 20.13,-6.42828 L 20.1173,-6.41721 L 20.1045,-6.40611
 L 20.0915,-6.39502 L 20.0785,-6.38391 L 20.0653,-6.37282 L 20.052,-6.36171 L 20.0386,-6.3506 L 20.025,-6.33948
 L 20.0114,-6.32837 L 19.9976,-6.31725 L 19.9837,-6.30612 L 19.9697,-6.295 L 19.9416,-6.27257 L 19.9276,-6.26123
 L 19.9135,-6.2498 L 19.8995,-6.2383 L 19.8854,-6.22672 L 19.8713,-6.21504 L 19.8572,-6.20329 L 19.843,-6.19145
 L 19.8289,-6.17953 L 19.8147,-6.16753 L 19.8006,-6.15544 L 19.7864,-6.14326 L 19.7722,-6.13101 L 19.758,-6.11868
 L 19.7437,-6.10626 L 19.7152,-6.08118 L 19.6866,-6.05576 L 19.658,-6.03 L 19.6437,-6.017 L 19.6294,-6.00397
 L 19.6152,-5.99081 L 19.6011,-5.97751 L 19.5871,-5.96408 L 19.5731,-5.95052 L 19.5591,-5.9368 L 19.5452,-5.92296
 L 19.5314,-5.90898 L 19.5176,-5.89487 L 19.5039,-5.88062 L 19.4902,-5.86624 L 19.4766,-5.85172 L 19.4631,-5.83705
 L 19.4496,-5.82227 L 19.4361,-5.80733 L 19.4227,-5.79227 L 19.4094,-5.77707 L 19.3961,-5.76172 L 19.3829,-5.74625
 L 19.3698,-5.73064 L 19.3567,-5.71489 L 19.3436,-5.69901 L 19.3307,-5.683 L 19.3178,-5.66689 L 19.3051,-5.65056
 L 19.2926,-5.63402 L 19.2802,-5.61726 L 19.268,-5.6003 L 19.256,-5.58311 L 19.2441,-5.56572 L 19.2325,-5.5481
 L 19.2209,-5.53026 L 19.2096,-5.51222 L 19.1984,-5.49396 L 19.1874,-5.47548 L 19.1766,-5.45679 L 19.1659,-5.43787
 L 19.1555,-5.41875 L 19.1451,-5.39941 L 19.135,-5.37985 L 19.125,-5.36008 L 19.1152,-5.34009 L 19.1056,-5.31989
 L 19.0961,-5.29947 L 19.0868,-5.27884 L 19.0777,-5.258 L 19.0777,-5 L 20.9726,-5 z
M 101.194,-4.93674 L 101.236,-4.93892 L 101.277,-4.94258 L 101.316,-4.94768 L 101.355,-4.95425 L 101.393,-4.96228
 L 101.43,-4.97176 L 101.466,-4.98271 L 101.501,-4.99512 L 101.535,-5.00896 L 101.569,-5.02428 L 101.601,-5.04106
 L 101.633,-5.05931 L 101.663,-5.07901 L 101.693,-5.10017 L 101.722,-5.12279 L 101.75,-5.14687 L 101.777,-5.17241
 L 101.803,-5.1994 L 101.828,-5.22786 L 101.852,-5.25778 L 101.876,-5.28915 L 101.898,-5.32199 L 101.92,-5.35622
 L 101.94,-5.39174 L 101.96,-5.42857 L 101.978,-5.46672 L 101.996,-5.50616 L 102.013,-5.54694 L 102.029,-5.589
 L 102.043,-5.63237 L 102.057,-5.67706 L 102.07,-5.72305 L 102.082,-5.77036 L 102.093,-5.81895 L 102.103,-5.86888
 L 102.112,-5.9201 L 102.12,-5.97264 L 102.128,-6.02647 L 102.134,-6.08162 L 102.139,-6.13808 L 102.143,-6.19585
 L 102.147,-6.25493 L 102.149,-6.31531 L 102.151,-6.377 L 102.151,-6.43999 L 102.151,-6.50409 L 102.149,-6.56679
 L 102.147,-6.62811 L 102.144,-6.68805 L 102.14,-6.74661 L 102.135,-6.80379 L 102.129,-6.85957 L 102.122,-6.91397
 L 102.114,-6.967 L 102.105,-7.01863 L 102.096,-7.06888 L 102.085,-7.11775 L 102.074,-7.16524 L 102.062,-7.21135
 L 102.048,-7.25606 L 102.034,-7.29939 L 102.019,-7.34134 L 102.003,-7.38191 L 101.987,-7.4211 L 101.969,-7.45889
 L 101.95,-7.49532 L 101.93,-7.53035 L 101.91,-7.564 L 101.889,-7.59631 L 101.866,-7.62721 L 101.843,-7.65666
 L 101.818,-7.68468 L 101.793,-7.71126 L 101.767,-7.73639 L 101.739,-7.7601 L 101.711,-7.78236 L 101.681,-7.80319
 L 101.651,-7.82259 L 101.62,-7.84055 L 101.587,-7.85707 L 101.554,-7.87216 L 101.519,-7.8858 L 101.484,-7.89803
 L 101.447,-7.9088 L 101.41,-7.91814 L 101.371,-7.92604 L 101.332,-7.9325 L 101.291,-7.93753 L 101.25,-7.94112
 L 101.207,-7.94327 L 101.164,-7.94398 L 101.119,-7.94328 L 101.076,-7.94115 L 101.033,-7.93759 L 100.992,-7.93262
 L 100.951,-7.92622 L 100.912,-7.91841 L 100.873,-7.90916 L 100.836,-7.8985 L 100.8,-7.88641 L 100.765,-7.87291
 L 100.73,-7.85799 L 100.697,-7.84164 L 100.665,-7.82387 L 100.634,-7.80469 L 100.604,-7.78407 L 100.576,-7.76204
 L 100.548,-7.73857 L 100.521,-7.7137 L 100.495,-7.68741 L 100.471,-7.65968 L 100.447,-7.63054 L 100.424,-7.59998
 L 100.403,-7.56799 L 100.383,-7.53467 L 100.363,-7.49992 L 100.344,-7.46373 L 100.327,-7.42613 L 100.31,-7.38708
 L 100.294,-7.34662 L 100.279,-7.30472 L 100.265,-7.2614 L 100.252,-7.21663 L 100.24,-7.17046 L 100.228,-7.12283
 L 100.218,-7.07379 L 100.208,-7.02332 L 100.2,-6.97142 L 100.192,-6.91809 L 100.185,-6.86333 L 100.179,-6.80714
 L 100.174,-6.74953 L 100.17,-6.69048 L 100.167,-6.62999 L 100.165,-6.56808 L 100.163,-6.50476 L 100.163,-6.43999
 L 100.163,-6.37666 L 100.165,-6.31465 L 100.167,-6.25398 L 100.17,-6.19464 L 100.175,-6.13663 L 100.18,-6.07994
 L 100.186,-6.0246 L 100.193,-5.97058 L 100.201,-5.91789 L 100.21,-5.86653 L 100.219,-5.81651 L 100.23,-5.76781
 L 100.242,-5.72044 L 100.255,-5.67441 L 100.268,-5.62971 L 100.283,-5.58633 L 100.298,-5.5443 L 100.314,-5.50359
 L 100.332,-5.4642 L 100.35,-5.42615 L 100.369,-5.38943 L 100.389,-5.35405 L 100.41,-5.31999 L 100.432,-5.28732
 L 100.455,-5.25612 L 100.479,-5.22635 L 100.504,-5.19804 L 100.529,-5.17119 L 100.556,-5.14578 L 100.584,-5.12183
 L 100.612,-5.09932 L 100.642,-5.07826 L 100.672,-5.05867 L 100.703,-5.04053 L 100.736,-5.02382 L 100.769,-5.00858
 L 100.803,-4.99481 L 100.838,-4.98247 L 100.874,-4.97157 L 100.911,-4.96214 L 100.949,-4.95416 L 100.988,-4.94762
 L 101.027,-4.94254 L 101.068,-4.9389 L 101.109,-4.93674 L 101.152,-4.936 z
M 101.128,-5.23553 L 101.101,-5.23718 L 101.074,-5.23993 L 101.048,-5.24376 L 101.023,-5.2487 L 100.998,-5.25473
 L 100.974,-5.26186 L 100.951,-5.27008 L 100.928,-5.2794 L 100.906,-5.28981 L 100.885,-5.30133 L 100.865,-5.31393
 L 100.845,-5.32764 L 100.825,-5.34244 L 100.807,-5.35834 L 100.789,-5.37534 L 100.771,-5.39342 L 100.754,-5.41261
 L 100.738,-5.43289 L 100.723,-5.45427 L 100.708,-5.47675 L 100.694,-5.50032 L 100.681,-5.52499 L 100.668,-5.55084
 L 100.656,-5.57796 L 100.645,-5.60634 L 100.634,-5.636 L 100.623,-5.66692 L 100.613,-5.6991 L 100.604,-5.73254
 L 100.595,-5.76726 L 100.587,-5.80324 L 100.58,-5.8405 L 100.573,-5.87901 L 100.566,-5.91879 L 100.56,-5.95984
 L 100.555,-6.00215 L 100.55,-6.04575 L 100.546,-6.09059 L 100.542,-6.1367 L 100.539,-6.18408 L 100.536,-6.23273
 L 100.535,-6.28265 L 100.533,-6.33383 L 100.532,-6.38628 L 100.532,-6.43999 L 100.532,-6.4953 L 100.533,-6.54924
 L 100.535,-6.60182 L 100.536,-6.65302 L 100.539,-6.70284 L 100.542,-6.75128 L 100.546,-6.79837 L 100.55,-6.84407
 L 100.555,-6.88841 L 100.56,-6.93137 L 100.566,-6.97296 L 100.572,-7.01318 L 100.579,-7.05202 L 100.586,-7.08949
 L 100.595,-7.1256 L 100.603,-7.16032 L 100.612,-7.19368 L 100.622,-7.22566 L 100.632,-7.25627 L 100.643,-7.28551
 L 100.655,-7.31339 L 100.666,-7.33987 L 100.679,-7.36499 L 100.692,-7.38898 L 100.706,-7.41191 L 100.721,-7.43376
 L 100.736,-7.45454 L 100.752,-7.47427 L 100.769,-7.49294 L 100.786,-7.51053 L 100.804,-7.52705 L 100.823,-7.54251
 L 100.843,-7.5569 L 100.863,-7.57024 L 100.884,-7.58249 L 100.906,-7.59369 L 100.929,-7.60381 L 100.952,-7.61287
 L 100.976,-7.62086 L 101.001,-7.62781 L 101.026,-7.63367 L 101.052,-7.63846 L 101.079,-7.6422 L 101.107,-7.64487
 L 101.135,-7.64645 L 101.164,-7.64699 L 101.192,-7.64645 L 101.22,-7.64484 L 101.247,-7.64212 L 101.273,-7.63834
 L 101.298,-7.63348 L 101.323,-7.62753 L 101.347,-7.6205 L 101.37,-7.6124 L 101.393,-7.6032 L 101.415,-7.59293
 L 101.436,-7.58157 L 101.457,-7.56914 L 101.476,-7.55562 L 101.496,-7.54103 L 101.514,-7.52534 L 101.532,-7.50859
 L 101.549,-7.49075 L 101.565,-7.47182 L 101.581,-7.45181 L 101.596,-7.43074 L 101.61,-7.40857 L 101.623,-7.38531
 L 101.636,-7.36099 L 101.648,-7.33554 L 101.66,-7.30878 L 101.671,-7.28067 L 101.681,-7.25125 L 101.691,-7.22049
 L 101.701,-7.18842 L 101.71,-7.155 L 101.718,-7.12027 L 101.726,-7.0842 L 101.733,-7.04681 L 101.74,-7.0081
 L 101.746,-6.96805 L 101.752,-6.92668 L 101.757,-6.88399 L 101.762,-6.83997 L 101.766,-6.79462 L 101.769,-6.74792
 L 101.772,-6.69992 L 101.775,-6.65059 L 101.777,-6.59993 L 101.778,-6.54794 L 101.779,-6.49463 L 101.779,-6.43999
 L 101.779,-6.38728 L 101.778,-6.33578 L 101.776,-6.28548 L 101.774,-6.23636 L 101.772,-6.18845 L 101.769,-6.14174
 L 101.765,-6.09622 L 101.761,-6.05191 L 101.756,-6.00879 L 101.75,-5.96687 L 101.744,-5.92615 L 101.738,-5.88663
 L 101.731,-5.84831 L 101.723,-5.81119 L 101.715,-5.77525 L 101.706,-5.74052 L 101.697,-5.707 L 101.687,-5.67467
 L 101.676,-5.64354 L 101.665,-5.6136 L 101.653,-5.58487 L 101.641,-5.55733 L 101.628,-5.53099 L 101.615,-5.50581
 L 101.601,-5.48175 L 101.586,-5.45882 L 101.571,-5.43698 L 101.555,-5.41629 L 101.538,-5.3967 L 101.521,-5.37823
 L 101.503,-5.36089 L 101.484,-5.34467 L 101.465,-5.32956 L 101.445,-5.31557 L 101.425,-5.3027 L 101.403,-5.29095
 L 101.382,-5.28032 L 101.359,-5.2708 L 101.336,-5.26241 L 101.312,-5.25514 L 101.288,-5.24898 L 101.263,-5.24394
 L 101.237,-5.24002 L 101.211,-5.23723 L 101.184,-5.23555 L 101.156,-5.23499 z
M 89.9925,-4.93677 L 90.0345,-4.93906 L 90.0757,-4.94289 L 90.1159,-4.94823 L 90.1553,-4.95509 L 90.1939,-4.9635
 L 90.2316,-4.97343 L 90.2684,-4.98488 L 90.3043,-4.99786 L 90.3394,-5.01236 L 90.3736,-5.0284 L 90.407,-5.04596
 L 90.4394,-5.06506 L 90.4711,-5.08568 L 90.5018,-5.10782 L 90.5317,-5.1315 L 90.5607,-5.15671 L 90.5889,-5.18343
 L 90.6161,-5.21169 L 90.6426,-5.24147 L 90.6681,-5.27278 L 90.6928,-5.30562 L 90.7166,-5.34 L 90.7395,-5.37587
 L 90.7614,-5.41306 L 90.7822,-5.45157 L 90.8021,-5.49139 L 90.8209,-5.53253 L 90.8387,-5.57498 L 90.8555,-5.61874
 L 90.8712,-5.66383 L 90.886,-5.71024 L 90.8997,-5.75795 L 90.9124,-5.80698 L 90.9241,-5.85733 L 90.9348,-5.909
 L 90.9445,-5.96198 L 90.9531,-6.01627 L 90.9607,-6.07188 L 90.9673,-6.1288 L 90.9729,-6.18704 L 90.9775,-6.2466
 L 90.9811,-6.30748 L 90.9836,-6.36967 L 90.9851,-6.43317 L 90.9856,-6.49799 L 90.9852,-6.56026 L 90.9838,-6.62115
 L 90.9815,-6.68068 L 90.9782,-6.73885 L 90.974,-6.79562 L 90.9689,-6.85103 L 90.9629,-6.90506 L 90.9559,-6.95773
 L 90.948,-7.00902 L 90.9391,-7.05894 L 90.9294,-7.10748 L 90.9187,-7.15466 L 90.9071,-7.20045 L 90.8945,-7.24489
 L 90.881,-7.28795 L 90.8666,-7.32964 L 90.8513,-7.36993 L 90.835,-7.40887 L 90.8178,-7.44644 L 90.7996,-7.48264
 L 90.7806,-7.51747 L 90.7606,-7.55092 L 90.7396,-7.58299 L 90.7178,-7.61371 L 90.6951,-7.64305 L 90.6715,-7.67102
 L 90.6471,-7.69763 L 90.6218,-7.72289 L 90.5956,-7.74678 L 90.5685,-7.76929 L 90.5406,-7.79045 L 90.5117,-7.81024
 L 90.4821,-7.82866 L 90.4515,-7.84572 L 90.4201,-7.86142 L 90.3878,-7.87575 L 90.3546,-7.88872 L 90.3205,-7.90031
 L 90.2856,-7.91055 L 90.2498,-7.91942 L 90.2131,-7.92693 L 90.1756,-7.93307 L 90.1371,-7.93785 L 90.0979,-7.94127
 L 90.0577,-7.94331 L 90.0166,-7.94398 L 89.978,-7.9435 L 89.9401,-7.94199 L 89.9029,-7.93948 L 89.8664,-7.93597
 L 89.8307,-7.93147 L 89.7958,-7.92596 L 89.7616,-7.91945 L 89.7281,-7.91193 L 89.6954,-7.90341 L 89.6635,-7.89389
 L 89.6322,-7.88338 L 89.6018,-7.87186 L 89.572,-7.85933 L 89.543,-7.84581 L 89.5148,-7.83128 L 89.4873,-7.81575
 L 89.4605,-7.79922 L 89.4345,-7.78169 L 89.4093,-7.76315 L 89.3848,-7.74362 L 89.361,-7.72307 L 89.338,-7.70154
 L 89.3157,-7.67899 L 89.2942,-7.65565 L 89.2737,-7.63158 L 89.2542,-7.60675 L 89.2356,-7.58118 L 89.218,-7.55486
 L 89.2013,-7.52779 L 89.1856,-7.49995 L 89.1708,-7.47139 L 89.157,-7.44206 L 89.1442,-7.412 L 89.1323,-7.38118
 L 89.1213,-7.34961 L 89.1113,-7.31731 L 89.1022,-7.28424 L 89.0941,-7.25043 L 89.087,-7.21587 L 89.0808,-7.18056
 L 89.0756,-7.1445 L 89.0713,-7.1077 L 89.0679,-7.07014 L 89.0656,-7.03185 L 89.0641,-6.9928 L 89.0637,-6.95299
 L 89.0641,-6.91428 L 89.0654,-6.87625 L 89.0676,-6.83887 L 89.0706,-6.80217 L 89.0746,-6.76614 L 89.0794,-6.73077
 L 89.0851,-6.69609 L 89.0916,-6.66206 L 89.099,-6.62871 L 89.1073,-6.59602 L 89.1165,-6.564 L 89.1265,-6.53265
 L 89.1375,-6.50197 L 89.1492,-6.47197 L 89.1619,-6.44263 L 89.1754,-6.41396 L 89.1899,-6.38596 L 89.2051,-6.35861
 L 89.2213,-6.33195 L 89.2383,-6.30595 L 89.2562,-6.28064 L 89.275,-6.25598 L 89.2947,-6.23199 L 89.3151,-6.20885
 L 89.3362,-6.18675 L 89.3578,-6.16566 L 89.38,-6.14561 L 89.4028,-6.12659 L 89.4262,-6.1086 L 89.4501,-6.09163
 L 89.4747,-6.07568 L 89.4998,-6.06078 L 89.5255,-6.04689 L 89.5518,-6.03403 L 89.5787,-6.0222 L 89.6061,-6.01141
 L 89.6342,-6.00165 L 89.6628,-5.9929 L 89.692,-5.98518 L 89.7218,-5.9785 L 89.7521,-5.97284 L 89.7831,-5.96822
 L 89.8146,-5.96461 L 89.8467,-5.96205 L 89.8794,-5.96051 L 89.9127,-5.95999 L 89.9331,-5.96021 L 89.9534,-5.96083
 L 89.9736,-5.96187 L 89.9936,-5.96332 L 90.0134,-5.96519 L 90.0331,-5.96748 L 90.0527,-5.97018 L 90.0721,-5.9733
 L 90.0914,-5.97684 L 90.1105,-5.98079 L 90.1295,-5.98515 L 90.1483,-5.98993 L 90.167,-5.99513 L 90.1855,-6.00075
 L 90.2039,-6.00677 L 90.2221,-6.01323 L 90.2402,-6.02008 L 90.2581,-6.02736 L 90.2759,-6.03506 L 90.2936,-6.04317
 L 90.3111,-6.0517 L 90.3284,-6.06064 L 90.3456,-6.06999 L 90.3625,-6.07979 L 90.379,-6.08984 L 90.3951,-6.10017
 L 90.4107,-6.11078 L 90.4258,-6.12166 L 90.4405,-6.13281 L 90.4548,-6.14423 L 90.4687,-6.15591 L 90.4821,-6.16789
 L 90.495,-6.18013 L 90.5076,-6.19264 L 90.5196,-6.20541 L 90.5313,-6.21848 L 90.5425,-6.2318 L 90.5533,-6.24539
 L 90.5636,-6.25928 L 90.5735,-6.27341 L 90.5829,-6.28783 L 90.592,-6.30252 L 90.6005,-6.31747 L 90.6087,-6.33272
 L 90.6164,-6.34822 L 90.6236,-6.364 L 90.6226,-6.31708 L 90.621,-6.2711 L 90.6187,-6.22609 L 90.6159,-6.18202
 L 90.6124,-6.1389 L 90.6082,-6.09673 L 90.6035,-6.0555 L 90.5981,-6.01523 L 90.5921,-5.97591 L 90.5855,-5.93753
 L 90.5782,-5.9001 L 90.5704,-5.86362 L 90.5619,-5.82809 L 90.5528,-5.79352 L 90.543,-5.75989 L 90.5327,-5.7272
 L 90.5217,-5.69547 L 90.5101,-5.66467 L 90.4978,-5.63484 L 90.485,-5.60596 L 90.4715,-5.57802 L 90.4574,-5.55103
 L 90.4426,-5.52499 L 90.4273,-5.49998 L 90.4115,-5.47609 L 90.3951,-5.45329 L 90.3782,-5.43163 L 90.3608,-5.41106
 L 90.3428,-5.3916 L 90.3243,-5.37328 L 90.3052,-5.35603 L 90.2857,-5.33992 L 90.2655,-5.32492 L 90.2449,-5.31102
 L 90.2237,-5.29823 L 90.202,-5.28658 L 90.1798,-5.27602 L 90.157,-5.26656 L 90.1337,-5.25822 L 90.1099,-5.25101
 L 90.0855,-5.24489 L 90.0606,-5.23988 L 90.0352,-5.23599 L 90.0092,-5.23322 L 89.9827,-5.23155 L 89.9557,-5.23099
 L 89.9236,-5.23167 L 89.8926,-5.23369 L 89.8626,-5.23706 L 89.8336,-5.24179 L 89.8055,-5.24786 L 89.7785,-5.25529
 L 89.7525,-5.26405 L 89.7274,-5.27419 L 89.7034,-5.28566 L 89.6803,-5.29848 L 89.6583,-5.31265 L 89.6373,-5.32817
 L 89.6172,-5.34505 L 89.5982,-5.36327 L 89.5801,-5.38284 L 89.5631,-5.40376 L 89.547,-5.42603 L 89.532,-5.44965
 L 89.5179,-5.47461 L 89.5049,-5.50093 L 89.4928,-5.52861 L 89.4817,-5.55762 L 89.4717,-5.588 L 89.1227,-5.53299
 L 89.1304,-5.50594 L 89.1387,-5.47952 L 89.1473,-5.45378 L 89.1564,-5.4287 L 89.1659,-5.40427 L 89.1759,-5.38049
 L 89.1863,-5.35738 L 89.1971,-5.33492 L 89.2084,-5.31311 L 89.22,-5.29198 L 89.2322,-5.27148 L 89.2448,-5.25166
 L 89.2578,-5.2325 L 89.2712,-5.21399 L 89.285,-5.19614 L 89.2994,-5.17894 L 89.3141,-5.1624 L 89.3293,-5.14651
 L 89.3449,-5.1313 L 89.3609,-5.11673 L 89.3774,-5.10283 L 89.3943,-5.08958 L 89.4117,-5.077 L 89.4296,-5.065
 L 89.448,-5.05354 L 89.4669,-5.0426 L 89.4863,-5.03221 L 89.5062,-5.02235 L 89.5266,-5.01302 L 89.5475,-5.00423
 L 89.5688,-4.99597 L 89.5907,-4.98825 L 89.6131,-4.98105 L 89.636,-4.9744 L 89.6594,-4.96826 L 89.6833,-4.96266
 L 89.7077,-4.9576 L 89.7326,-4.95306 L 89.758,-4.94907 L 89.7839,-4.9456 L 89.8102,-4.94267 L 89.8371,-4.94028
 L 89.8645,-4.9384 L 89.8924,-4.93707 L 89.9208,-4.93628 L 89.9497,-4.936 z
M 89.9772,-6.24835 L 89.9553,-6.24942 L 89.9337,-6.25121 L 89.9125,-6.25371 L 89.8917,-6.25693 L 89.8714,-6.26085
 L 89.8514,-6.2655 L 89.8319,-6.27086 L 89.8127,-6.27693 L 89.794,-6.28372 L 89.7757,-6.29123 L 89.7578,-6.29944
 L 89.7402,-6.30836 L 89.7232,-6.31802 L 89.7065,-6.32838 L 89.6902,-6.33946 L 89.6743,-6.35124 L 89.6588,-6.36375
 L 89.6438,-6.37697 L 89.6292,-6.3909 L 89.6149,-6.40555 L 89.6011,-6.42091 L 89.5877,-6.437 L 89.5747,-6.45377
 L 89.5624,-6.47107 L 89.5506,-6.48888 L 89.5394,-6.50719 L 89.5288,-6.52603 L 89.5187,-6.54538 L 89.5092,-6.56525
 L 89.5003,-6.58562 L 89.492,-6.60651 L 89.4842,-6.62791 L 89.477,-6.64984 L 89.4704,-6.67227 L 89.4644,-6.69522
 L 89.4589,-6.71869 L 89.4541,-6.74266 L 89.4497,-6.76715 L 89.446,-6.79216 L 89.4428,-6.81769 L 89.4403,-6.84372
 L 89.4382,-6.87027 L 89.4368,-6.89732 L 89.4359,-6.9249 L 89.4357,-6.95299 L 89.4359,-6.98048 L 89.4368,-7.00748
 L 89.4382,-7.03397 L 89.4403,-7.05995 L 89.4428,-7.08545 L 89.446,-7.11044 L 89.4497,-7.13493 L 89.4541,-7.15894
 L 89.4589,-7.18243 L 89.4644,-7.20543 L 89.4704,-7.22794 L 89.477,-7.24992 L 89.4842,-7.27142 L 89.492,-7.29243
 L 89.5003,-7.31294 L 89.5092,-7.33295 L 89.5187,-7.35245 L 89.5288,-7.37144 L 89.5394,-7.38995 L 89.5506,-7.40796
 L 89.5624,-7.42548 L 89.5747,-7.44247 L 89.5877,-7.459 L 89.6011,-7.47499 L 89.6149,-7.49026 L 89.6292,-7.50484
 L 89.6439,-7.51869 L 89.659,-7.53185 L 89.6746,-7.54428 L 89.6906,-7.55602 L 89.707,-7.56703 L 89.7238,-7.57733
 L 89.741,-7.58693 L 89.7587,-7.59581 L 89.7768,-7.60399 L 89.7953,-7.61145 L 89.8142,-7.61821 L 89.8336,-7.62425
 L 89.8533,-7.62958 L 89.8735,-7.6342 L 89.8942,-7.63811 L 89.9152,-7.64131 L 89.9367,-7.6438 L 89.9586,-7.64557
 L 89.9809,-7.64664 L 90.0036,-7.64699 L 90.0266,-7.64658 L 90.0491,-7.64534 L 90.0712,-7.64326 L 90.0929,-7.64037
 L 90.1142,-7.63664 L 90.1351,-7.6321 L 90.1555,-7.62671 L 90.1756,-7.6205 L 90.1953,-7.61346 L 90.2145,-7.60559
 L 90.2334,-7.59689 L 90.2518,-7.58737 L 90.2698,-7.57703 L 90.2875,-7.56586 L 90.3047,-7.55385 L 90.3215,-7.54102
 L 90.3379,-7.52734 L 90.3539,-7.51286 L 90.3694,-7.49754 L 90.3846,-7.4814 L 90.3994,-7.46442 L 90.4137,-7.44662
 L 90.4276,-7.42799 L 90.4412,-7.40868 L 90.4541,-7.38884 L 90.4664,-7.36847 L 90.4781,-7.34755 L 90.4893,-7.32611
 L 90.4998,-7.30414 L 90.5097,-7.28163 L 90.519,-7.25859 L 90.5277,-7.23502 L 90.5358,-7.21091 L 90.5434,-7.18626
 L 90.5503,-7.16109 L 90.5566,-7.13538 L 90.5623,-7.10915 L 90.5674,-7.08237 L 90.5719,-7.05507 L 90.5758,-7.02722
 L 90.5791,-6.99886 L 90.5818,-6.96994 L 90.5839,-6.94051 L 90.5854,-6.91054 L 90.5863,-6.88004 L 90.5866,-6.849
 L 90.5865,-6.83376 L 90.5861,-6.81866 L 90.5853,-6.80373 L 90.5843,-6.78893 L 90.583,-6.77426 L 90.5813,-6.75975
 L 90.5794,-6.74538 L 90.5772,-6.73116 L 90.5747,-6.71707 L 90.5719,-6.70312 L 90.5688,-6.68933 L 90.5654,-6.67569
 L 90.5617,-6.66217 L 90.5577,-6.6488 L 90.5535,-6.63559 L 90.5489,-6.62251 L 90.544,-6.60957 L 90.5389,-6.59679
 L 90.5334,-6.58414 L 90.5277,-6.57164 L 90.5216,-6.55928 L 90.5153,-6.54706 L 90.5087,-6.53499 L 90.5018,-6.52319
 L 90.4946,-6.51164 L 90.4873,-6.50031 L 90.4798,-6.48921 L 90.472,-6.47836 L 90.464,-6.46773 L 90.4558,-6.45734
 L 90.4474,-6.44719 L 90.4387,-6.43727 L 90.4299,-6.42758 L 90.4208,-6.41814 L 90.4115,-6.40892 L 90.4019,-6.39993
 L 90.3922,-6.39117 L 90.3822,-6.38266 L 90.3721,-6.37439 L 90.3616,-6.36635 L 90.351,-6.35854 L 90.3402,-6.35095
 L 90.3291,-6.34361 L 90.3179,-6.3365 L 90.3064,-6.32964 L 90.2946,-6.323 L 90.2828,-6.31662 L 90.2708,-6.31052
 L 90.2588,-6.3047 L 90.2466,-6.29918 L 90.2344,-6.29393 L 90.2221,-6.28897 L 90.2097,-6.28429 L 90.1973,-6.27989
 L 90.1847,-6.27579 L 90.172,-6.27196 L 90.1593,-6.2684 L 90.1465,-6.26515 L 90.1336,-6.26218 L 90.1206,-6.25948
 L 90.1075,-6.25706 L 90.0943,-6.25494 L 90.081,-6.2531 L 90.0677,-6.25154 L 90.0543,-6.25026 L 90.0407,-6.24927
 L 90.0271,-6.24857 L 90.0134,-6.24814 L 89.9997,-6.24799 z
M 30.0688,-4.93642 L 30.1082,-4.93765 L 30.1468,-4.93971 L 30.1846,-4.9426 L 30.2215,-4.9463 L 30.2577,-4.95084
 L 30.293,-4.95621 L 30.3275,-4.96239 L 30.3612,-4.96939 L 30.3941,-4.97722 L 30.4262,-4.98587 L 30.4574,-4.99535
 L 30.4879,-5.00563 L 30.5175,-5.01677 L 30.5463,-5.02872 L 30.5743,-5.04149 L 30.6015,-5.05508 L 30.6279,-5.06952
 L 30.6535,-5.08476 L 30.6783,-5.10083 L 30.7022,-5.11772 L 30.7253,-5.13545 L 30.7477,-5.15399 L 30.7691,-5.17337
 L 30.7896,-5.19344 L 30.8091,-5.21419 L 30.8277,-5.23561 L 30.8453,-5.25772 L 30.862,-5.2805 L 30.8777,-5.30397
 L 30.8925,-5.32811 L 30.9063,-5.35295 L 30.9191,-5.37845 L 30.931,-5.40465 L 30.942,-5.43152 L 30.952,-5.45906
 L 30.9611,-5.48729 L 30.9692,-5.5162 L 30.9763,-5.54579 L 30.9825,-5.57607 L 30.9877,-5.60703 L 30.992,-5.63866
 L 30.9954,-5.67097 L 30.9977,-5.70396 L 30.9992,-5.73764 L 30.9996,-5.77199 L 30.9993,-5.79573 L 30.9983,-5.81912
 L 30.9966,-5.84215 L 30.9942,-5.86484 L 30.9912,-5.88716 L 30.9875,-5.90915 L 30.9831,-5.93077 L 30.978,-5.95204
 L 30.9722,-5.97298 L 30.9658,-5.99355 L 30.9587,-6.01376 L 30.9509,-6.03363 L 30.9425,-6.05315 L 30.9333,-6.07231
 L 30.9235,-6.09113 L 30.913,-6.10959 L 30.9019,-6.1277 L 30.89,-6.14546 L 30.8775,-6.16287 L 30.8643,-6.17993
 L 30.8504,-6.19664 L 30.8359,-6.213 L 30.8206,-6.22899 L 30.8048,-6.24454 L 30.7884,-6.25954 L 30.7715,-6.27397
 L 30.7541,-6.28786 L 30.7361,-6.30118 L 30.7176,-6.31395 L 30.6985,-6.32616 L 30.6789,-6.33781 L 30.6588,-6.34892
 L 30.6382,-6.35947 L 30.6169,-6.36946 L 30.5952,-6.37889 L 30.5729,-6.38777 L 30.5501,-6.39609 L 30.5268,-6.40385
 L 30.5029,-6.41107 L 30.4785,-6.41772 L 30.4535,-6.42383 L 30.428,-6.42937 L 30.402,-6.43436 L 30.3754,-6.4388
 L 30.3483,-6.44267 L 30.3206,-6.446 L 30.3206,-6.45399 L 30.3459,-6.45969 L 30.3705,-6.46582 L 30.3947,-6.47238
 L 30.4183,-6.47939 L 30.4414,-6.48682 L 30.464,-6.49469 L 30.486,-6.50299 L 30.5075,-6.51173 L 30.5285,-6.5209
 L 30.549,-6.53052 L 30.5689,-6.54056 L 30.5883,-6.55104 L 30.6071,-6.56195 L 30.6255,-6.5733 L 30.6433,-6.58508
 L 30.6606,-6.59729 L 30.6773,-6.60995 L 30.6935,-6.62303 L 30.7092,-6.63655 L 30.7243,-6.65051 L 30.739,-6.6649
 L 30.7531,-6.67973 L 30.7666,-6.69499 L 30.7797,-6.71068 L 30.7923,-6.72676 L 30.8042,-6.74324 L 30.8156,-6.76015
 L 30.8263,-6.77744 L 30.8365,-6.79515 L 30.8461,-6.81325 L 30.8551,-6.83176 L 30.8636,-6.85068 L 30.8714,-6.87
 L 30.8787,-6.88972 L 30.8854,-6.90985 L 30.8915,-6.93039 L 30.8971,-6.95134 L 30.902,-6.97267 L 30.9064,-6.99443
 L 30.9102,-7.01657 L 30.9134,-7.03914 L 30.916,-7.0621 L 30.918,-7.08546 L 30.9195,-7.10924 L 30.9203,-7.13341
 L 30.9206,-7.15799 L 30.9202,-7.18994 L 30.9188,-7.22127 L 30.9166,-7.25198 L 30.9134,-7.28207 L 30.9093,-7.31154
 L 30.9044,-7.34039 L 30.8985,-7.36862 L 30.8917,-7.39624 L 30.884,-7.42323 L 30.8755,-7.4496 L 30.866,-7.47536
 L 30.8556,-7.50047 L 30.8443,-7.52499 L 30.8321,-7.54887 L 30.819,-7.57214 L 30.805,-7.5948 L 30.7901,-7.61684
 L 30.7743,-7.63824 L 30.7576,-7.65903 L 30.7399,-7.6792 L 30.7214,-7.69875 L 30.702,-7.71768 L 30.6816,-7.73599
 L 30.6605,-7.75369 L 30.6386,-7.7706 L 30.616,-7.78671 L 30.5927,-7.80205 L 30.5687,-7.8166 L 30.5439,-7.83035
 L 30.5185,-7.84334 L 30.4923,-7.85553 L 30.4654,-7.86693 L 30.4377,-7.87755 L 30.4093,-7.88737 L 30.3803,-7.89642
 L 30.3504,-7.90468 L 30.3199,-7.91214 L 30.2887,-7.91882 L 30.2567,-7.92473 L 30.224,-7.92984 L 30.1906,-7.93416
 L 30.1564,-7.9377 L 30.1216,-7.94046 L 30.086,-7.94241 L 30.0497,-7.9436 L 30.0126,-7.94398 L 29.9787,-7.94362
 L 29.9452,-7.9425 L 29.9123,-7.94064 L 29.8799,-7.93803 L 29.8481,-7.93468 L 29.8168,-7.93059 L 29.7861,-7.92575
 L 29.7559,-7.92017 L 29.7262,-7.91383 L 29.6971,-7.90675 L 29.6685,-7.89893 L 29.6405,-7.89037 L 29.6129,-7.88106
 L 29.586,-7.871 L 29.5596,-7.8602 L 29.5337,-7.84866 L 29.5083,-7.83636 L 29.4836,-7.82333 L 29.4593,-7.80956
 L 29.4356,-7.79503 L 29.4124,-7.77977 L 29.3898,-7.76375 L 29.3677,-7.74699 L 29.3462,-7.72957 L 29.3256,-7.71156
 L 29.3058,-7.69296 L 29.2867,-7.67378 L 29.2684,-7.65402 L 29.251,-7.63367 L 29.2343,-7.61272 L 29.2185,-7.5912
 L 29.2034,-7.56909 L 29.1891,-7.54639 L 29.1756,-7.5231 L 29.1629,-7.49924 L 29.151,-7.47478 L 29.1399,-7.44974
 L 29.1296,-7.4241 L 29.1201,-7.3979 L 29.1113,-7.37109 L 29.1034,-7.3437 L 29.0963,-7.31573 L 29.0899,-7.28719
 L 29.0844,-7.25804 L 29.0796,-7.2283 L 29.0757,-7.198 L 29.4437,-7.17 L 29.446,-7.18936 L 29.4488,-7.20836
 L 29.452,-7.22697 L 29.4558,-7.24519 L 29.46,-7.26305 L 29.4647,-7.28052 L 29.4698,-7.29759 L 29.4755,-7.3143
 L 29.4816,-7.33061 L 29.4882,-7.34656 L 29.4952,-7.36211 L 29.5027,-7.37729 L 29.5107,-7.39207 L 29.5192,-7.40648
 L 29.5281,-7.42052 L 29.5375,-7.43416 L 29.5474,-7.44742 L 29.5578,-7.46031 L 29.5686,-7.47281 L 29.5799,-7.48492
 L 29.5917,-7.49666 L 29.6039,-7.50803 L 29.6167,-7.519 L 29.6299,-7.52954 L 29.6434,-7.53963 L 29.6573,-7.54922
 L 29.6716,-7.55836 L 29.6862,-7.56705 L 29.7012,-7.57526 L 29.7165,-7.58298 L 29.7321,-7.59026 L 29.7481,-7.59705
 L 29.7645,-7.60338 L 29.7812,-7.60924 L 29.7982,-7.61462 L 29.8156,-7.61955 L 29.8334,-7.62401 L 29.8514,-7.62799
 L 29.8699,-7.6315 L 29.8887,-7.63455 L 29.9078,-7.63713 L 29.9273,-7.63924 L 29.9471,-7.64088 L 29.9673,-7.64206
 L 29.9878,-7.64276 L 30.0087,-7.64299 L 30.0315,-7.64273 L 30.0539,-7.64192 L 30.0758,-7.64059 L 30.0972,-7.63873
 L 30.1181,-7.63632 L 30.1385,-7.63339 L 30.1584,-7.62993 L 30.1778,-7.62593 L 30.1968,-7.6214 L 30.2152,-7.61633
 L 30.2331,-7.61075 L 30.2505,-7.60461 L 30.2675,-7.59795 L 30.2839,-7.59074 L 30.2999,-7.58302 L 30.3153,-7.57475
 L 30.3303,-7.56596 L 30.3448,-7.55664 L 30.3587,-7.54677 L 30.3722,-7.53638 L 30.3852,-7.52545 L 30.3977,-7.51399
 L 30.4096,-7.502 L 30.4211,-7.48962 L 30.4321,-7.47687 L 30.4426,-7.46373 L 30.4525,-7.45021 L 30.462,-7.43631
 L 30.4709,-7.42201 L 30.4793,-7.40733 L 30.4872,-7.39226 L 30.4946,-7.37682 L 30.5015,-7.36098 L 30.5079,-7.34474
 L 30.5138,-7.32814 L 30.5191,-7.31114 L 30.524,-7.29376 L 30.5283,-7.276 L 30.5321,-7.25784 L 30.5355,-7.23932
 L 30.5383,-7.22038 L 30.5406,-7.20108 L 30.5423,-7.18138 L 30.5436,-7.1613 L 30.5444,-7.14084 L 30.5446,-7.12
 L 30.5443,-7.09897 L 30.5434,-7.07835 L 30.5418,-7.05814 L 30.5396,-7.03833 L 30.5368,-7.01892 L 30.5333,-6.99991
 L 30.5293,-6.98129 L 30.5246,-6.96307 L 30.5192,-6.94527 L 30.5133,-6.92786 L 30.5067,-6.91084 L 30.4995,-6.89424
 L 30.4916,-6.87804 L 30.4831,-6.86223 L 30.474,-6.84682 L 30.4643,-6.83182 L 30.454,-6.8172 L 30.443,-6.80301
 L 30.4314,-6.7892 L 30.4191,-6.7758 L 30.4063,-6.76279 L 30.3928,-6.7502 L 30.3786,-6.73799 L 30.364,-6.72626
 L 30.3489,-6.71504 L 30.3333,-6.70435 L 30.3171,-6.69417 L 30.3005,-6.68451 L 30.2833,-6.67538 L 30.2656,-6.66678
 L 30.2474,-6.65869 L 30.2287,-6.65112 L 30.2095,-6.64407 L 30.1897,-6.63756 L 30.1694,-6.63156 L 30.1487,-6.62608
 L 30.1274,-6.62112 L 30.1056,-6.61668 L 30.0833,-6.61278 L 30.0604,-6.60939 L 30.0371,-6.60652 L 30.0132,-6.60417
 L 29.9889,-6.60234 L 29.964,-6.60103 L 29.9386,-6.60025 L 29.9127,-6.59999 L 29.7137,-6.59999 L 29.7137,-6.28299
 L 29.9207,-6.28299 L 29.9498,-6.28275 L 29.9784,-6.282 L 30.0064,-6.28075 L 30.0338,-6.27901 L 30.0605,-6.27675
 L 30.0867,-6.274 L 30.1123,-6.27077 L 30.1372,-6.26703 L 30.1616,-6.26279 L 30.1854,-6.25804 L 30.2085,-6.25279
 L 30.2311,-6.24706 L 30.2531,-6.24083 L 30.2744,-6.23409 L 30.2952,-6.22685 L 30.3154,-6.21912 L 30.3349,-6.21088
 L 30.3539,-6.20215 L 30.3722,-6.19292 L 30.39,-6.18318 L 30.4071,-6.17296 L 30.4237,-6.16222 L 30.4397,-6.15099
 L 30.455,-6.13931 L 30.4696,-6.12726 L 30.4835,-6.11481 L 30.4968,-6.10196 L 30.5094,-6.08873 L 30.5213,-6.07512
 L 30.5325,-6.06111 L 30.5431,-6.04671 L 30.5529,-6.03192 L 30.5621,-6.01674 L 30.5706,-6.00117 L 30.5785,-5.98521
 L 30.5856,-5.96887 L 30.5921,-5.95213 L 30.5979,-5.93501 L 30.603,-5.9175 L 30.6074,-5.8996 L 30.6111,-5.8813
 L 30.6142,-5.86261 L 30.6166,-5.84355 L 30.6183,-5.82408 L 30.6193,-5.80423 L 30.6196,-5.784 L 30.6193,-5.76068
 L 30.6185,-5.73787 L 30.617,-5.71558 L 30.6149,-5.69379 L 30.6122,-5.6725 L 30.6089,-5.65172 L 30.605,-5.63145
 L 30.6005,-5.61168 L 30.5955,-5.59242 L 30.5898,-5.57367 L 30.5835,-5.55542 L 30.5766,-5.53769 L 30.5692,-5.52045
 L 30.5611,-5.50372 L 30.5524,-5.4875 L 30.5432,-5.4718 L 30.5333,-5.45659 L 30.5229,-5.44189 L 30.5118,-5.4277
 L 30.5002,-5.41402 L 30.4879,-5.40083 L 30.4751,-5.38815 L 30.4616,-5.37599 L 30.4478,-5.36433 L 30.4334,-5.3532
 L 30.4187,-5.34259 L 30.4034,-5.33249 L 30.3878,-5.32291 L 30.3716,-5.31384 L 30.3551,-5.3053 L 30.338,-5.29726
 L 30.3206,-5.28975 L 30.3026,-5.28276 L 30.2843,-5.27629 L 30.2654,-5.27032 L 30.2462,-5.26489 L 30.2264,-5.25996
 L 30.2063,-5.25557 L 30.1856,-5.25168 L 30.1646,-5.24832 L 30.143,-5.24547 L 30.121,-5.24313 L 30.0986,-5.24132
 L 30.0757,-5.24002 L 30.0524,-5.23926 L 30.0286,-5.239 L 29.9816,-5.23996 L 29.9364,-5.24283 L 29.8931,-5.24763
 L 29.8515,-5.25436 L 29.8117,-5.263 L 29.7737,-5.27356 L 29.7375,-5.28604 L 29.7032,-5.30045 L 29.6706,-5.31677
 L 29.6399,-5.33502 L 29.6109,-5.35519 L 29.5838,-5.37727 L 29.5585,-5.40129 L 29.535,-5.42722 L 29.5133,-5.45506
 L 29.4934,-5.48483 L 29.4753,-5.51653 L 29.459,-5.55013 L 29.4445,-5.58566 L 29.4318,-5.62311 L 29.421,-5.66249
 L 29.4119,-5.70378 L 29.4047,-5.74699 L 29.0267,-5.71199 L 29.0313,-5.67896 L 29.0368,-5.64664 L 29.043,-5.61502
 L 29.05,-5.58411 L 29.0579,-5.55392 L 29.0665,-5.52444 L 29.0759,-5.49567 L 29.0862,-5.46761 L 29.0972,-5.44026
 L 29.109,-5.41362 L 29.1216,-5.3877 L 29.1349,-5.36247 L 29.1491,-5.33797 L 29.1641,-5.31416 L 29.1799,-5.29109
 L 29.1965,-5.26871 L 29.2138,-5.24704 L 29.232,-5.22609 L 29.2509,-5.20586 L 29.2707,-5.18633 L 29.2912,-5.1675
 L 29.3125,-5.1494 L 29.3347,-5.13199 L 29.3575,-5.11533 L 29.381,-5.09938 L 29.4052,-5.0842 L 29.4301,-5.06975
 L 29.4556,-5.05603 L 29.4818,-5.04308 L 29.5086,-5.03084 L 29.5361,-5.01936 L 29.5643,-5.00861 L 29.5932,-4.99863
 L 29.6227,-4.98936 L 29.6528,-4.98083 L 29.6837,-4.97305 L 29.7152,-4.96602 L 29.7473,-4.95972 L 29.7802,-4.95416
 L 29.8137,-4.94934 L 29.8479,-4.94527 L 29.8827,-4.94194 L 29.9182,-4.93935 L 29.9543,-4.93748 L 29.9912,-4.93637
 L 30.0286,-4.936 z
M 122.104,-5.31099 L 120.611,-5.31099 L 120.616,-5.32353 L 120.622,-5.33612 L 120.628,-5.34875 L 120.635,-5.36143
 L 120.641,-5.37416 L 120.648,-5.38693 L 120.655,-5.39975 L 120.663,-5.41261 L 120.671,-5.42552 L 120.679,-5.43848
 L 120.687,-5.45148 L 120.696,-5.46452 L 120.705,-5.47762 L 120.714,-5.49074 L 120.723,-5.50392 L 120.733,-5.51715
 L 120.743,-5.53041 L 120.754,-5.54373 L 120.764,-5.5571 L 120.775,-5.5705 L 120.787,-5.58395 L 120.798,-5.59744
 L 120.81,-5.61099 L 120.822,-5.62463 L 120.835,-5.6384 L 120.848,-5.65231 L 120.861,-5.66637 L 120.875,-5.68057
 L 120.889,-5.6949 L 120.903,-5.70938 L 120.918,-5.72398 L 120.933,-5.73874 L 120.948,-5.75363 L 120.964,-5.76868
 L 120.98,-5.78384 L 120.997,-5.79916 L 121.014,-5.81462 L 121.031,-5.83022 L 121.048,-5.84595 L 121.066,-5.86182
 L 121.085,-5.87782 L 121.104,-5.89398 L 121.123,-5.91028 L 121.142,-5.92671 L 121.162,-5.94328 L 121.218,-5.99017
 L 121.254,-6.01964 L 121.288,-6.04843 L 121.322,-6.07651 L 121.354,-6.10391 L 121.385,-6.1306 L 121.415,-6.1566
 L 121.444,-6.1819 L 121.472,-6.20651 L 121.5,-6.23042 L 121.526,-6.25365 L 121.551,-6.27617 L 121.575,-6.29799
 L 121.597,-6.31912 L 121.619,-6.33955 L 121.64,-6.3593 L 121.66,-6.37834 L 121.679,-6.39668 L 121.697,-6.41434
 L 121.713,-6.43129 L 121.729,-6.44756 L 121.743,-6.46312 L 121.757,-6.478 L 121.77,-6.49251 L 121.783,-6.50703
 L 121.795,-6.52156 L 121.807,-6.53607 L 121.819,-6.5506 L 121.831,-6.56512 L 121.842,-6.57965 L 121.853,-6.59416
 L 121.864,-6.60869 L 121.874,-6.62321 L 121.884,-6.63773 L 121.894,-6.65225 L 121.904,-6.66678 L 121.913,-6.68129
 L 121.922,-6.69582 L 121.931,-6.71034 L 121.939,-6.72487 L 121.947,-6.73938 L 121.955,-6.75391 L 121.963,-6.76843
 L 121.97,-6.78294 L 121.977,-6.79747 L 121.984,-6.812 L 121.99,-6.82652 L 121.997,-6.84105 L 122.003,-6.85559
 L 122.008,-6.87013 L 122.013,-6.88469 L 122.018,-6.89926 L 122.023,-6.91383 L 122.028,-6.92841 L 122.032,-6.94299
 L 122.036,-6.95758 L 122.039,-6.97218 L 122.043,-6.9868 L 122.046,-7.00142 L 122.048,-7.01604 L 122.051,-7.03067
 L 122.053,-7.0453 L 122.055,-7.05995 L 122.056,-7.07462 L 122.058,-7.08926 L 122.059,-7.10394 L 122.059,-7.11862
 L 122.06,-7.1333 L 122.06,-7.14799 L 122.06,-7.18088 L 122.058,-7.2131 L 122.056,-7.24467 L 122.053,-7.27557
 L 122.049,-7.3058 L 122.044,-7.33539 L 122.038,-7.3643 L 122.032,-7.39256 L 122.024,-7.42015 L 122.016,-7.44708
 L 122.007,-7.47336 L 121.997,-7.49896 L 121.986,-7.52391 L 121.974,-7.5482 L 121.961,-7.57182 L 121.947,-7.59479
 L 121.933,-7.61708 L 121.917,-7.63872 L 121.901,-7.6597 L 121.884,-7.68001 L 121.866,-7.69968 L 121.847,-7.71866
 L 121.827,-7.737 L 121.806,-7.75461 L 121.785,-7.77142 L 121.763,-7.78748 L 121.74,-7.80273 L 121.717,-7.81721
 L 121.692,-7.8309 L 121.667,-7.84381 L 121.641,-7.85594 L 121.615,-7.86729 L 121.587,-7.87787 L 121.559,-7.88765
 L 121.53,-7.89664 L 121.501,-7.90486 L 121.47,-7.91229 L 121.439,-7.91895 L 121.407,-7.92482 L 121.374,-7.9299
 L 121.341,-7.9342 L 121.307,-7.93773 L 121.272,-7.94048 L 121.236,-7.94243 L 121.199,-7.9436 L 121.162,-7.94398
 L 121.128,-7.9436 L 121.095,-7.94246 L 121.062,-7.94054 L 121.029,-7.93785 L 120.997,-7.9344 L 120.966,-7.93018
 L 120.935,-7.92519 L 120.905,-7.91943 L 120.876,-7.9129 L 120.846,-7.90562 L 120.818,-7.89755 L 120.79,-7.88873
 L 120.762,-7.87914 L 120.735,-7.86877 L 120.709,-7.85765 L 120.683,-7.84575 L 120.658,-7.83308 L 120.633,-7.81966
 L 120.609,-7.80547 L 120.585,-7.7905 L 120.562,-7.77477 L 120.539,-7.75826 L 120.517,-7.741 L 120.496,-7.72307
 L 120.475,-7.70464 L 120.455,-7.68565 L 120.436,-7.66615 L 120.418,-7.64612 L 120.4,-7.62555 L 120.384,-7.60446
 L 120.368,-7.58284 L 120.353,-7.56068 L 120.338,-7.53801 L 120.325,-7.5148 L 120.312,-7.49106 L 120.3,-7.46678
 L 120.289,-7.44199 L 120.279,-7.41666 L 120.269,-7.39081 L 120.261,-7.36443 L 120.253,-7.33751 L 120.246,-7.31006
 L 120.239,-7.28209 L 120.234,-7.25359 L 120.229,-7.22455 L 120.225,-7.19499 L 120.599,-7.15999 L 120.601,-7.17972
 L 120.604,-7.19905 L 120.608,-7.218 L 120.612,-7.23656 L 120.616,-7.25473 L 120.621,-7.27252 L 120.626,-7.28993
 L 120.632,-7.30696 L 120.638,-7.32359 L 120.645,-7.33984 L 120.652,-7.3557 L 120.66,-7.37119 L 120.668,-7.38628
 L 120.677,-7.40099 L 120.686,-7.4153 L 120.696,-7.42924 L 120.706,-7.44279 L 120.716,-7.45595 L 120.727,-7.46873
 L 120.739,-7.48112 L 120.751,-7.49313 L 120.763,-7.50476 L 120.776,-7.51599 L 120.789,-7.52679 L 120.803,-7.53712
 L 120.817,-7.54697 L 120.831,-7.55632 L 120.846,-7.5652 L 120.861,-7.57361 L 120.876,-7.58153 L 120.892,-7.58897
 L 120.908,-7.59593 L 120.924,-7.60242 L 120.94,-7.60843 L 120.957,-7.61394 L 120.974,-7.61899 L 120.991,-7.62355
 L 121.009,-7.62762 L 121.027,-7.63123 L 121.045,-7.63435 L 121.064,-7.63699 L 121.083,-7.63914 L 121.102,-7.64084
 L 121.122,-7.64203 L 121.142,-7.64275 L 121.162,-7.64299 L 121.183,-7.64275 L 121.204,-7.64198 L 121.224,-7.64073
 L 121.244,-7.63898 L 121.264,-7.6367 L 121.283,-7.63394 L 121.302,-7.63068 L 121.32,-7.62691 L 121.338,-7.62263
 L 121.355,-7.61784 L 121.373,-7.61256 L 121.389,-7.60678 L 121.406,-7.60051 L 121.421,-7.59372 L 121.437,-7.58643
 L 121.452,-7.57863 L 121.467,-7.57033 L 121.481,-7.56154 L 121.495,-7.55223 L 121.508,-7.54242 L 121.521,-7.53212
 L 121.534,-7.5213 L 121.546,-7.50999 L 121.558,-7.49823 L 121.569,-7.48604 L 121.58,-7.47346 L 121.59,-7.46046
 L 121.599,-7.44707 L 121.609,-7.43326 L 121.617,-7.41904 L 121.625,-7.4044 L 121.633,-7.38937 L 121.64,-7.37393
 L 121.646,-7.35808 L 121.652,-7.34181 L 121.658,-7.32513 L 121.663,-7.30806 L 121.667,-7.29057 L 121.671,-7.27269
 L 121.675,-7.25438 L 121.677,-7.23567 L 121.68,-7.21655 L 121.682,-7.19702 L 121.683,-7.17709 L 121.684,-7.15674
 L 121.684,-7.13599 L 121.684,-7.12067 L 121.683,-7.10548 L 121.683,-7.09042 L 121.682,-7.07552 L 121.68,-7.06073
 L 121.678,-7.0461 L 121.676,-7.03159 L 121.674,-7.01721 L 121.672,-7.00298 L 121.669,-6.98889 L 121.665,-6.97493
 L 121.662,-6.96109 L 121.658,-6.9474 L 121.654,-6.93385 L 121.65,-6.92044 L 121.645,-6.90715 L 121.64,-6.89401
 L 121.634,-6.881 L 121.629,-6.86812 L 121.623,-6.85539 L 121.616,-6.84279 L 121.61,-6.83032 L 121.603,-6.81799
 L 121.596,-6.80585 L 121.589,-6.79373 L 121.581,-6.78168 L 121.574,-6.76965 L 121.566,-6.75769 L 121.558,-6.74576
 L 121.55,-6.73389 L 121.541,-6.72205 L 121.533,-6.71027 L 121.524,-6.69852 L 121.515,-6.68683 L 121.506,-6.67517
 L 121.497,-6.66356 L 121.487,-6.65201 L 121.477,-6.64049 L 121.467,-6.62901 L 121.457,-6.61758 L 121.447,-6.60622
 L 121.437,-6.59488 L 121.426,-6.58359 L 121.415,-6.57234 L 121.404,-6.56114 L 121.393,-6.54999 L 121.382,-6.53894
 L 121.37,-6.52789 L 121.359,-6.51685 L 121.347,-6.50578 L 121.335,-6.49472 L 121.323,-6.48366 L 121.311,-6.4726
 L 121.299,-6.46152 L 121.286,-6.45045 L 121.274,-6.43936 L 121.261,-6.42828 L 121.249,-6.41721 L 121.236,-6.40611
 L 121.223,-6.39502 L 121.21,-6.38391 L 121.197,-6.37282 L 121.183,-6.36171 L 121.17,-6.3506 L 121.156,-6.33948
 L 121.143,-6.32837 L 121.129,-6.31725 L 121.115,-6.30612 L 121.101,-6.295 L 121.073,-6.27257 L 121.059,-6.26123
 L 121.045,-6.2498 L 121.031,-6.2383 L 121.017,-6.22672 L 121.003,-6.21504 L 120.989,-6.20329 L 120.974,-6.19145
 L 120.96,-6.17953 L 120.946,-6.16753 L 120.932,-6.15544 L 120.918,-6.14326 L 120.904,-6.13101 L 120.889,-6.11868
 L 120.875,-6.10626 L 120.847,-6.08118 L 120.818,-6.05576 L 120.789,-6.03 L 120.775,-6.017 L 120.761,-6.00397
 L 120.747,-5.99081 L 120.732,-5.97751 L 120.718,-5.96408 L 120.704,-5.95052 L 120.69,-5.9368 L 120.677,-5.92296
 L 120.663,-5.90898 L 120.649,-5.89487 L 120.635,-5.88062 L 120.622,-5.86624 L 120.608,-5.85172 L 120.594,-5.83705
 L 120.581,-5.82227 L 120.567,-5.80733 L 120.554,-5.79227 L 120.541,-5.77707 L 120.527,-5.76172 L 120.514,-5.74625
 L 120.501,-5.73064 L 120.488,-5.71489 L 120.475,-5.69901 L 120.462,-5.683 L 120.449,-5.66689 L 120.436,-5.65056
 L 120.424,-5.63402 L 120.412,-5.61726 L 120.399,-5.6003 L 120.387,-5.58311 L 120.375,-5.56572 L 120.364,-5.5481
 L 120.352,-5.53026 L 120.341,-5.51222 L 120.33,-5.49396 L 120.319,-5.47548 L 120.308,-5.45679 L 120.297,-5.43787
 L 120.287,-5.41875 L 120.276,-5.39941 L 120.266,-5.37985 L 120.256,-5.36008 L 120.247,-5.34009 L 120.237,-5.31989
 L 120.227,-5.29947 L 120.218,-5.27884 L 120.209,-5.258 L 120.209,-5 L 122.104,-5 z
M 60.1129,-4.93651 L 60.1494,-4.93802 L 60.1852,-4.94054 L 60.2203,-4.94405 L 60.2547,-4.94858 L 60.2884,-4.95412
 L 60.3214,-4.96065 L 60.3537,-4.96819 L 60.3853,-4.97673 L 60.4161,-4.9863 L 60.4463,-4.99686 L 60.4758,-5.00841
 L 60.5046,-5.02097 L 60.5326,-5.03455 L 60.56,-5.04913 L 60.5867,-5.06471 L 60.6126,-5.08131 L 60.6379,-5.09891
 L 60.6625,-5.11752 L 60.6863,-5.13713 L 60.7095,-5.15775 L 60.7319,-5.17937 L 60.7536,-5.202 L 60.7746,-5.22549
 L 60.7946,-5.24973 L 60.8136,-5.27469 L 60.8318,-5.30038 L 60.849,-5.32681 L 60.8652,-5.35397 L 60.8806,-5.38188
 L 60.895,-5.41051 L 60.9085,-5.43987 L 60.9211,-5.46997 L 60.9327,-5.50081 L 60.9434,-5.53236 L 60.9531,-5.56467
 L 60.962,-5.5977 L 60.9699,-5.63147 L 60.9769,-5.66595 L 60.9829,-5.70119 L 60.988,-5.73717 L 60.9922,-5.77386
 L 60.9955,-5.81129 L 60.9978,-5.84946 L 60.9992,-5.88837 L 60.9996,-5.92799 L 60.9992,-5.96461 L 60.9979,-6.0006
 L 60.9957,-6.0359 L 60.9926,-6.07056 L 60.9886,-6.10455 L 60.9838,-6.13789 L 60.9781,-6.17058 L 60.9715,-6.20259
 L 60.964,-6.23396 L 60.9556,-6.26466 L 60.9464,-6.29471 L 60.9362,-6.32411 L 60.9252,-6.35284 L 60.9133,-6.38092
 L 60.9005,-6.40833 L 60.8869,-6.43509 L 60.8724,-6.4612 L 60.8569,-6.48663 L 60.8406,-6.51143 L 60.8235,-6.53555
 L 60.8054,-6.55902 L 60.7865,-6.58183 L 60.7666,-6.60399 L 60.7462,-6.62543 L 60.7251,-6.64592 L 60.7033,-6.66545
 L 60.681,-6.68402 L 60.658,-6.70164 L 60.6344,-6.71832 L 60.6102,-6.73404 L 60.5854,-6.74881 L 60.56,-6.76262
 L 60.5339,-6.77548 L 60.5072,-6.7874 L 60.4799,-6.79836 L 60.452,-6.80835 L 60.4234,-6.81741 L 60.3943,-6.8255
 L 60.3645,-6.83266 L 60.3341,-6.83884 L 60.3031,-6.84409 L 60.2714,-6.84837 L 60.2392,-6.8517 L 60.2063,-6.85408
 L 60.1728,-6.85551 L 60.1386,-6.85599 L 60.1184,-6.8558 L 60.0983,-6.85526 L 60.0785,-6.85434 L 60.0589,-6.85306
 L 60.0394,-6.85141 L 60.0202,-6.8494 L 60.0011,-6.847 L 59.9823,-6.84425 L 59.9636,-6.84114 L 59.9452,-6.83766
 L 59.927,-6.8338 L 59.9089,-6.82959 L 59.8911,-6.825 L 59.8734,-6.82005 L 59.856,-6.81473 L 59.8387,-6.80905
 L 59.8217,-6.80299 L 59.8049,-6.79659 L 59.7882,-6.78979 L 59.7718,-6.78265 L 59.7555,-6.77513 L 59.7395,-6.76724
 L 59.7237,-6.75899 L 59.7082,-6.75047 L 59.693,-6.74164 L 59.6781,-6.73245 L 59.6635,-6.72295 L 59.6492,-6.71309
 L 59.6352,-6.70291 L 59.6215,-6.69241 L 59.6081,-6.68156 L 59.595,-6.67039 L 59.5823,-6.65887 L 59.5698,-6.64703
 L 59.5576,-6.63486 L 59.5457,-6.62236 L 59.5342,-6.60951 L 59.5229,-6.59634 L 59.5119,-6.58284 L 59.5013,-6.569
 L 59.4909,-6.55484 L 59.4809,-6.54033 L 59.4711,-6.5255 L 59.4617,-6.51033 L 59.4525,-6.49483 L 59.4437,-6.47899
 L 59.444,-6.52788 L 59.4449,-6.57574 L 59.4466,-6.6226 L 59.4488,-6.66846 L 59.4517,-6.71329 L 59.4553,-6.7571
 L 59.4595,-6.79991 L 59.4644,-6.84171 L 59.4698,-6.88248 L 59.476,-6.92224 L 59.4828,-6.961 L 59.4902,-6.99873
 L 59.4983,-7.03546 L 59.507,-7.07117 L 59.5164,-7.10588 L 59.5264,-7.13956 L 59.5371,-7.17223 L 59.5484,-7.20389
 L 59.5603,-7.23454 L 59.573,-7.26418 L 59.5862,-7.29279 L 59.6001,-7.3204 L 59.6147,-7.34698 L 59.6299,-7.37251
 L 59.6456,-7.3969 L 59.6619,-7.42015 L 59.6788,-7.44226 L 59.6961,-7.46326 L 59.714,-7.48309 L 59.7324,-7.50182
 L 59.7514,-7.51939 L 59.7709,-7.53584 L 59.7909,-7.55115 L 59.8114,-7.56532 L 59.8325,-7.57837 L 59.8541,-7.59029
 L 59.8763,-7.60106 L 59.899,-7.6107 L 59.9222,-7.6192 L 59.946,-7.62657 L 59.9702,-7.63281 L 59.9951,-7.63792
 L 60.0204,-7.64189 L 60.0463,-7.64473 L 60.0727,-7.64642 L 60.0996,-7.64699 L 60.1307,-7.64633 L 60.1608,-7.64435
 L 60.19,-7.64105 L 60.2182,-7.63644 L 60.2454,-7.63049 L 60.2717,-7.62325 L 60.297,-7.61467 L 60.3213,-7.60477
 L 60.3447,-7.59355 L 60.3671,-7.58102 L 60.3885,-7.56717 L 60.409,-7.55199 L 60.4285,-7.53549 L 60.4471,-7.51768
 L 60.4647,-7.49855 L 60.4813,-7.4781 L 60.4969,-7.45633 L 60.5116,-7.43324 L 60.5254,-7.40883 L 60.5381,-7.3831
 L 60.5499,-7.35605 L 60.5608,-7.32768 L 60.5706,-7.29799 L 60.9206,-7.36099 L 60.905,-7.41058 L 60.8876,-7.45798
 L 60.8684,-7.50316 L 60.8474,-7.54614 L 60.8245,-7.58691 L 60.7999,-7.62549 L 60.7734,-7.66187 L 60.7451,-7.69603
 L 60.715,-7.72798 L 60.6831,-7.75774 L 60.6494,-7.78529 L 60.6139,-7.81064 L 60.5766,-7.83379 L 60.5374,-7.85472
 L 60.4965,-7.87346 L 60.4537,-7.88998 L 60.4091,-7.90431 L 60.3627,-7.91644 L 60.3145,-7.92636 L 60.2645,-7.93407
 L 60.2127,-7.93959 L 60.1591,-7.94289 L 60.1036,-7.94398 L 60.0613,-7.94322 L 60.0198,-7.94092 L 59.9792,-7.93707
 L 59.9394,-7.93169 L 59.9004,-7.92476 L 59.8624,-7.91629 L 59.8251,-7.9063 L 59.7887,-7.89474 L 59.7532,-7.88167
 L 59.7186,-7.86705 L 59.6847,-7.85089 L 59.6518,-7.83321 L 59.6197,-7.81396 L 59.5884,-7.7932 L 59.558,-7.77089
 L 59.5285,-7.74702 L 59.4998,-7.72165 L 59.472,-7.69472 L 59.445,-7.66624 L 59.4189,-7.63625 L 59.3936,-7.60469
 L 59.3692,-7.57161 L 59.3457,-7.53699 L 59.323,-7.50102 L 59.3014,-7.46371 L 59.2808,-7.42508 L 59.2612,-7.3851
 L 59.2426,-7.3438 L 59.225,-7.30115 L 59.2084,-7.25717 L 59.1928,-7.21185 L 59.1782,-7.16521 L 59.1646,-7.11722
 L 59.1521,-7.0679 L 59.1405,-7.01724 L 59.1299,-6.96526 L 59.1204,-6.91194 L 59.1118,-6.85728 L 59.1043,-6.8013
 L 59.0978,-6.74397 L 59.0922,-6.6853 L 59.0877,-6.62532 L 59.0842,-6.56398 L 59.0817,-6.50133 L 59.0802,-6.43733
 L 59.0797,-6.37199 L 59.0801,-6.31158 L 59.0816,-6.25244 L 59.084,-6.19456 L 59.0874,-6.13795 L 59.0918,-6.08261
 L 59.0971,-6.02853 L 59.1034,-5.97572 L 59.1106,-5.92418 L 59.1189,-5.8739 L 59.1281,-5.82489 L 59.1382,-5.77715
 L 59.1494,-5.73067 L 59.1614,-5.68546 L 59.1745,-5.64151 L 59.1885,-5.59883 L 59.2036,-5.55742 L 59.2195,-5.51727
 L 59.2365,-5.47839 L 59.2544,-5.44078 L 59.2732,-5.40443 L 59.2931,-5.36935 L 59.3139,-5.33554 L 59.3357,-5.30299
 L 59.3584,-5.27177 L 59.3819,-5.24194 L 59.4063,-5.2135 L 59.4316,-5.18645 L 59.4577,-5.16077 L 59.4847,-5.13649
 L 59.5126,-5.1136 L 59.5413,-5.09209 L 59.5709,-5.07198 L 59.6014,-5.05324 L 59.6327,-5.03589 L 59.6649,-5.01994
 L 59.6979,-5.00537 L 59.7318,-4.9922 L 59.7666,-4.98041 L 59.8022,-4.97 L 59.8387,-4.96098 L 59.876,-4.95335
 L 59.9142,-4.94711 L 59.9533,-4.94225 L 59.9932,-4.93878 L 60.034,-4.93671 L 60.0756,-4.936 z
M 60.0406,-5.2314 L 60.0188,-5.23262 L 59.9974,-5.23466 L 59.9764,-5.23752 L 59.9557,-5.2412 L 59.9353,-5.2457
 L 59.9154,-5.25101 L 59.8957,-5.25713 L 59.8764,-5.26407 L 59.8574,-5.27182 L 59.8388,-5.2804 L 59.8206,-5.28979
 L 59.8027,-5.3 L 59.7851,-5.31102 L 59.7679,-5.32286 L 59.751,-5.33553 L 59.7345,-5.349 L 59.7183,-5.36328
 L 59.7025,-5.37839 L 59.687,-5.39432 L 59.6719,-5.41106 L 59.6571,-5.42862 L 59.6427,-5.44699 L 59.6288,-5.466
 L 59.6155,-5.48547 L 59.6029,-5.50542 L 59.5909,-5.52582 L 59.5795,-5.54668 L 59.5687,-5.56799 L 59.5585,-5.58977
 L 59.549,-5.61201 L 59.5401,-5.63472 L 59.5317,-5.65788 L 59.524,-5.6815 L 59.5169,-5.7056 L 59.5105,-5.73015
 L 59.5046,-5.75516 L 59.4994,-5.78062 L 59.4948,-5.80655 L 59.4908,-5.83295 L 59.4874,-5.8598 L 59.4846,-5.88712
 L 59.4824,-5.91489 L 59.4809,-5.94313 L 59.48,-5.97183 L 59.4797,-6.00099 L 59.4799,-6.02408 L 59.4809,-6.04672
 L 59.4823,-6.06894 L 59.4844,-6.0907 L 59.4871,-6.11203 L 59.4903,-6.13292 L 59.4942,-6.15338 L 59.4987,-6.17339
 L 59.5037,-6.19296 L 59.5093,-6.21211 L 59.5156,-6.2308 L 59.5224,-6.24907 L 59.5298,-6.26689 L 59.5378,-6.28427
 L 59.5464,-6.30122 L 59.5556,-6.31772 L 59.5654,-6.3338 L 59.5758,-6.34943 L 59.5868,-6.36461 L 59.5984,-6.37936
 L 59.6105,-6.39368 L 59.6233,-6.40756 L 59.6367,-6.42099 L 59.6506,-6.43401 L 59.6649,-6.44644 L 59.6796,-6.4583
 L 59.6946,-6.46959 L 59.71,-6.48029 L 59.7258,-6.4904 L 59.7419,-6.49995 L 59.7584,-6.50891 L 59.7753,-6.5173
 L 59.7926,-6.52512 L 59.8102,-6.53235 L 59.8282,-6.539 L 59.8466,-6.54507 L 59.8653,-6.55057 L 59.8844,-6.55548
 L 59.9039,-6.55981 L 59.9238,-6.56358 L 59.944,-6.56676 L 59.9646,-6.56937 L 59.9855,-6.5714 L 60.0069,-6.57283
 L 60.0286,-6.5737 L 60.0506,-6.57399 L 60.0741,-6.57367 L 60.097,-6.57268 L 60.1196,-6.57104 L 60.1416,-6.56876
 L 60.1632,-6.56581 L 60.1844,-6.56223 L 60.2051,-6.55797 L 60.2253,-6.55305 L 60.2451,-6.5475 L 60.2645,-6.54129
 L 60.2834,-6.53442 L 60.3018,-6.5269 L 60.3198,-6.51872 L 60.3373,-6.50989 L 60.3544,-6.50041 L 60.371,-6.49026
 L 60.3872,-6.47948 L 60.4029,-6.46803 L 60.4182,-6.45593 L 60.433,-6.44318 L 60.4473,-6.42976 L 60.4612,-6.41571
 L 60.4746,-6.40099 L 60.4877,-6.38576 L 60.5001,-6.36998 L 60.5119,-6.35365 L 60.5232,-6.33678 L 60.5339,-6.31935
 L 60.5441,-6.30139 L 60.5536,-6.28287 L 60.5626,-6.26379 L 60.571,-6.24419 L 60.5788,-6.22401 L 60.586,-6.20331
 L 60.5927,-6.18204 L 60.5987,-6.16023 L 60.6042,-6.13788 L 60.6091,-6.11497 L 60.6135,-6.09152 L 60.6172,-6.06752
 L 60.6204,-6.04297 L 60.623,-6.01787 L 60.625,-5.99222 L 60.6265,-5.96603 L 60.6273,-5.93929 L 60.6276,-5.91199
 L 60.6274,-5.8846 L 60.6265,-5.85771 L 60.6251,-5.83134 L 60.6231,-5.8055 L 60.6205,-5.78015 L 60.6174,-5.75534
 L 60.6137,-5.73102 L 60.6094,-5.70723 L 60.6045,-5.68394 L 60.5991,-5.66118 L 60.5931,-5.63893 L 60.5865,-5.61719
 L 60.5794,-5.59596 L 60.5717,-5.57526 L 60.5634,-5.55505 L 60.5546,-5.53537 L 60.5452,-5.5162 L 60.5352,-5.49754
 L 60.5246,-5.47942 L 60.5135,-5.46179 L 60.5018,-5.44467 L 60.4895,-5.42807 L 60.4766,-5.41199 L 60.4634,-5.39659
 L 60.4497,-5.38188 L 60.4356,-5.36786 L 60.421,-5.35451 L 60.406,-5.34186 L 60.3906,-5.32988 L 60.3748,-5.31859
 L 60.3585,-5.30798 L 60.3418,-5.29805 L 60.3247,-5.28882 L 60.3071,-5.28026 L 60.2891,-5.2724 L 60.2707,-5.26521
 L 60.2518,-5.25871 L 60.2325,-5.25288 L 60.2128,-5.24776 L 60.1926,-5.24332 L 60.172,-5.23955 L 60.151,-5.23647
 L 60.1296,-5.23407 L 60.1077,-5.23236 L 60.0854,-5.23134 L 60.0626,-5.23099 z
M 80.0672,-4.93643 L 80.1069,-4.93773 L 80.1458,-4.93987 L 80.1839,-4.94287 L 80.2211,-4.94673 L 80.2575,-4.95146
 L 80.2931,-4.95703 L 80.3278,-4.96347 L 80.3617,-4.97076 L 80.3948,-4.97891 L 80.4271,-4.98793 L 80.4585,-4.9978
 L 80.4891,-5.00851 L 80.5189,-5.0201 L 80.5479,-5.03255 L 80.576,-5.04584 L 80.6033,-5.06001 L 80.6297,-5.07503
 L 80.6554,-5.0909 L 80.6802,-5.10764 L 80.7042,-5.12523 L 80.7273,-5.14368 L 80.7496,-5.16299 L 80.7711,-5.18315
 L 80.7916,-5.20401 L 80.8111,-5.22554 L 80.8297,-5.24774 L 80.8473,-5.27063 L 80.864,-5.2942 L 80.8797,-5.31845
 L 80.8945,-5.34338 L 80.9083,-5.36899 L 80.9211,-5.39528 L 80.933,-5.42226 L 80.944,-5.44991 L 80.954,-5.47824
 L 80.9631,-5.50725 L 80.9712,-5.53694 L 80.9783,-5.56732 L 80.9845,-5.59837 L 80.9897,-5.63011 L 80.994,-5.66252
 L 80.9974,-5.69562 L 80.9997,-5.7294 L 81.0012,-5.76385 L 81.0016,-5.799 L 81.0014,-5.82402 L 81.0005,-5.84869
 L 80.999,-5.873 L 80.997,-5.89693 L 80.9944,-5.9205 L 80.9912,-5.9437 L 80.9875,-5.96652 L 80.9831,-5.989
 L 80.9782,-6.01109 L 80.9727,-6.03284 L 80.9666,-6.0542 L 80.96,-6.0752 L 80.9528,-6.09583 L 80.945,-6.11609
 L 80.9366,-6.136 L 80.9276,-6.15553 L 80.9181,-6.1747 L 80.9079,-6.1935 L 80.8972,-6.21193 L 80.886,-6.23
 L 80.8741,-6.2477 L 80.8617,-6.26503 L 80.8486,-6.282 L 80.8352,-6.29858 L 80.8213,-6.31461 L 80.8069,-6.33008
 L 80.7921,-6.345 L 80.7768,-6.35934 L 80.761,-6.37314 L 80.7448,-6.38637 L 80.7281,-6.39905 L 80.711,-6.41116
 L 80.6934,-6.42271 L 80.6754,-6.4337 L 80.6568,-6.44414 L 80.6378,-6.45401 L 80.6184,-6.46333 L 80.5985,-6.47209
 L 80.5781,-6.48029 L 80.5573,-6.48792 L 80.536,-6.495 L 80.5143,-6.50151 L 80.4921,-6.50748 L 80.4694,-6.51288
 L 80.4462,-6.51772 L 80.4226,-6.52199 L 80.4226,-6.53 L 80.443,-6.53435 L 80.4629,-6.53922 L 80.4825,-6.5446
 L 80.5017,-6.55051 L 80.5205,-6.55695 L 80.539,-6.5639 L 80.557,-6.57138 L 80.5747,-6.57938 L 80.592,-6.58791
 L 80.609,-6.59695 L 80.6255,-6.60652 L 80.6417,-6.61661 L 80.6575,-6.62721 L 80.6729,-6.63834 L 80.6879,-6.64999
 L 80.7026,-6.66217 L 80.7169,-6.67487 L 80.7308,-6.68808 L 80.7443,-6.70181 L 80.7575,-6.71608 L 80.7702,-6.73087
 L 80.7826,-6.74617 L 80.7946,-6.76199 L 80.8062,-6.77829 L 80.8173,-6.79482 L 80.8278,-6.81158 L 80.8378,-6.8286
 L 80.8474,-6.84584 L 80.8563,-6.86333 L 80.8648,-6.88104 L 80.8728,-6.899 L 80.8802,-6.91721 L 80.8872,-6.93564
 L 80.8936,-6.95432 L 80.8995,-6.97324 L 80.9049,-6.99239 L 80.9098,-7.01176 L 80.9142,-7.0314 L 80.918,-7.05127
 L 80.9214,-7.07137 L 80.9242,-7.09171 L 80.9265,-7.11229 L 80.9283,-7.1331 L 80.9296,-7.15416 L 80.9304,-7.17546
 L 80.9306,-7.19699 L 80.9302,-7.22664 L 80.9288,-7.25574 L 80.9265,-7.2843 L 80.9232,-7.31232 L 80.9191,-7.3398
 L 80.914,-7.36674 L 80.9079,-7.39314 L 80.901,-7.41899 L 80.8931,-7.44432 L 80.8843,-7.46909 L 80.8746,-7.49333
 L 80.864,-7.51703 L 80.8524,-7.54018 L 80.8399,-7.56279 L 80.8264,-7.58487 L 80.8121,-7.6064 L 80.7968,-7.6274
 L 80.7806,-7.64784 L 80.7635,-7.66776 L 80.7454,-7.68712 L 80.7264,-7.70595 L 80.7065,-7.72424 L 80.6856,-7.74199
 L 80.664,-7.75917 L 80.6417,-7.77559 L 80.6187,-7.79124 L 80.5951,-7.80614 L 80.5708,-7.82027 L 80.5458,-7.83363
 L 80.5201,-7.84624 L 80.4938,-7.85808 L 80.4668,-7.86916 L 80.4391,-7.87946 L 80.4108,-7.88901 L 80.3818,-7.89778
 L 80.3521,-7.90581 L 80.3218,-7.91306 L 80.2908,-7.91956 L 80.2591,-7.92528 L 80.2268,-7.93025 L 80.1938,-7.93445
 L 80.1601,-7.93788 L 80.1257,-7.94055 L 80.0907,-7.94246 L 80.055,-7.9436 L 80.0186,-7.94398 L 79.9832,-7.9436
 L 79.9483,-7.94243 L 79.914,-7.94049 L 79.8804,-7.93776 L 79.8474,-7.93425 L 79.8151,-7.92998 L 79.7833,-7.92491
 L 79.7523,-7.91907 L 79.7218,-7.91245 L 79.692,-7.90504 L 79.6628,-7.89687 L 79.6342,-7.88792 L 79.6063,-7.87817
 L 79.579,-7.86766 L 79.5523,-7.85637 L 79.5263,-7.8443 L 79.5009,-7.83145 L 79.4761,-7.81783 L 79.4519,-7.80342
 L 79.4284,-7.78822 L 79.4055,-7.77226 L 79.3833,-7.75551 L 79.3617,-7.73799 L 79.3408,-7.71985 L 79.3209,-7.70122
 L 79.3019,-7.68213 L 79.2839,-7.66255 L 79.2667,-7.64252 L 79.2505,-7.62201 L 79.2352,-7.60103 L 79.2209,-7.57956
 L 79.2074,-7.55763 L 79.1949,-7.53523 L 79.1833,-7.51236 L 79.1727,-7.48901 L 79.163,-7.46519 L 79.1542,-7.4409
 L 79.1463,-7.41614 L 79.1394,-7.3909 L 79.1333,-7.36519 L 79.1282,-7.339 L 79.1241,-7.31235 L 79.1208,-7.28522
 L 79.1185,-7.25761 L 79.1171,-7.22954 L 79.1167,-7.20099 L 79.1169,-7.17946 L 79.1177,-7.15817 L 79.119,-7.13713
 L 79.1207,-7.11632 L 79.123,-7.09575 L 79.1259,-7.07544 L 79.1292,-7.05536 L 79.133,-7.03552 L 79.1373,-7.01591
 L 79.1422,-6.99657 L 79.1475,-6.97746 L 79.1534,-6.95859 L 79.1598,-6.93996 L 79.1667,-6.92157 L 79.1741,-6.90343
 L 79.182,-6.88553 L 79.1904,-6.86787 L 79.1993,-6.85045 L 79.2088,-6.83328 L 79.2187,-6.81635 L 79.2292,-6.79965
 L 79.2402,-6.7832 L 79.2517,-6.767 L 79.2636,-6.75114 L 79.2759,-6.73579 L 79.2886,-6.72093 L 79.3016,-6.70654
 L 79.315,-6.69266 L 79.3288,-6.67924 L 79.343,-6.66634 L 79.3575,-6.6539 L 79.3725,-6.64197 L 79.3878,-6.63051
 L 79.4034,-6.61954 L 79.4195,-6.60907 L 79.4359,-6.59908 L 79.4527,-6.58957 L 79.4698,-6.58055 L 79.4874,-6.57202
 L 79.5053,-6.564 L 79.5236,-6.55644 L 79.5423,-6.54938 L 79.5613,-6.5428 L 79.5807,-6.53671 L 79.6005,-6.53111
 L 79.6207,-6.52599 L 79.6207,-6.51799 L 79.5991,-6.51405 L 79.5779,-6.50952 L 79.557,-6.50439 L 79.5364,-6.4987
 L 79.5162,-6.4924 L 79.4963,-6.48553 L 79.4767,-6.47807 L 79.4575,-6.47002 L 79.4386,-6.4614 L 79.4201,-6.45216
 L 79.4019,-6.44237 L 79.384,-6.43198 L 79.3665,-6.42099 L 79.3493,-6.40944 L 79.3324,-6.39728 L 79.3159,-6.38455
 L 79.2997,-6.37123 L 79.2839,-6.35732 L 79.2684,-6.34282 L 79.2532,-6.32774 L 79.2383,-6.31209 L 79.2238,-6.29584
 L 79.2097,-6.27899 L 79.196,-6.26178 L 79.183,-6.24422 L 79.1706,-6.2263 L 79.1588,-6.20804 L 79.1477,-6.18942
 L 79.1371,-6.17047 L 79.1271,-6.15117 L 79.1177,-6.13152 L 79.1089,-6.11151 L 79.1008,-6.09117 L 79.0932,-6.07047
 L 79.0863,-6.04942 L 79.0799,-6.02803 L 79.0742,-6.0063 L 79.069,-5.98421 L 79.0645,-5.96178 L 79.0605,-5.939
 L 79.0572,-5.91586 L 79.0545,-5.89238 L 79.0524,-5.86856 L 79.0509,-5.84439 L 79.05,-5.81985 L 79.0497,-5.795
 L 79.0502,-5.75952 L 79.0516,-5.72476 L 79.0541,-5.69072 L 79.0575,-5.65738 L 79.0619,-5.62474 L 79.0673,-5.59283
 L 79.0737,-5.56163 L 79.081,-5.53113 L 79.0893,-5.50134 L 79.0986,-5.47227 L 79.1089,-5.44391 L 79.1202,-5.41626
 L 79.1324,-5.38931 L 79.1456,-5.36308 L 79.1598,-5.33757 L 79.175,-5.31276 L 79.1912,-5.28865 L 79.2083,-5.26527
 L 79.2264,-5.24258 L 79.2455,-5.22063 L 79.2656,-5.19937 L 79.2866,-5.17883 L 79.3087,-5.159 L 79.3316,-5.14003
 L 79.3552,-5.1219 L 79.3796,-5.10461 L 79.4048,-5.08817 L 79.4307,-5.07257 L 79.4574,-5.05782 L 79.4848,-5.04391
 L 79.513,-5.03084 L 79.542,-5.01862 L 79.5717,-5.00723 L 79.6021,-4.9967 L 79.6334,-4.98701 L 79.6653,-4.97816
 L 79.6981,-4.97015 L 79.7316,-4.96298 L 79.7658,-4.95667 L 79.8008,-4.95119 L 79.8365,-4.94655 L 79.8731,-4.94275
 L 79.9103,-4.9398 L 79.9483,-4.9377 L 79.9871,-4.93643 L 80.0266,-4.936 z
M 80.0008,-6.66425 L 79.9794,-6.66498 L 79.9584,-6.66621 L 79.9378,-6.66795 L 79.9177,-6.67018 L 79.898,-6.67291
 L 79.8787,-6.67613 L 79.8599,-6.67984 L 79.8415,-6.68405 L 79.8235,-6.68875 L 79.806,-6.69395 L 79.7889,-6.69965
 L 79.7723,-6.70584 L 79.7561,-6.71252 L 79.7403,-6.71971 L 79.7249,-6.72739 L 79.71,-6.73557 L 79.6955,-6.74423
 L 79.6815,-6.75339 L 79.6679,-6.76305 L 79.6547,-6.77319 L 79.642,-6.78384 L 79.6297,-6.795 L 79.6178,-6.80669
 L 79.6065,-6.81885 L 79.5958,-6.83144 L 79.5855,-6.84447 L 79.5758,-6.85796 L 79.5666,-6.87189 L 79.5579,-6.88628
 L 79.5498,-6.90109 L 79.5422,-6.91637 L 79.5351,-6.93208 L 79.5285,-6.94824 L 79.5225,-6.96486 L 79.5169,-6.9819
 L 79.5119,-6.9994 L 79.5075,-7.01735 L 79.5035,-7.03575 L 79.5001,-7.05458 L 79.4972,-7.07387 L 79.4949,-7.0936
 L 79.493,-7.11378 L 79.4917,-7.1344 L 79.4909,-7.15547 L 79.4907,-7.17699 L 79.4909,-7.19824 L 79.4917,-7.21902
 L 79.493,-7.23933 L 79.4947,-7.25919 L 79.497,-7.27856 L 79.4998,-7.29749 L 79.5032,-7.31595 L 79.507,-7.33394
 L 79.5113,-7.35146 L 79.5162,-7.36853 L 79.5215,-7.38512 L 79.5274,-7.40125 L 79.5338,-7.41692 L 79.5407,-7.43211
 L 79.5481,-7.44685 L 79.556,-7.46112 L 79.5644,-7.47493 L 79.5733,-7.48827 L 79.5828,-7.50114 L 79.5927,-7.51355
 L 79.6032,-7.5255 L 79.6142,-7.53697 L 79.6257,-7.54799 L 79.6376,-7.55855 L 79.6501,-7.56862 L 79.663,-7.57823
 L 79.6763,-7.58737 L 79.6902,-7.59604 L 79.7045,-7.60425 L 79.7192,-7.61198 L 79.7345,-7.61925 L 79.7502,-7.62605
 L 79.7663,-7.63239 L 79.7829,-7.63824 L 79.8,-7.64363 L 79.8176,-7.64854 L 79.8356,-7.653 L 79.8541,-7.657
 L 79.873,-7.66051 L 79.8924,-7.66356 L 79.9123,-7.66614 L 79.9326,-7.66824 L 79.9534,-7.66988 L 79.9747,-7.67105
 L 79.9965,-7.67175 L 80.0186,-7.672 L 80.0639,-7.67105 L 80.1071,-7.66824 L 80.1484,-7.66357 L 80.1876,-7.65703
 L 80.2248,-7.64861 L 80.26,-7.63831 L 80.2932,-7.62614 L 80.3244,-7.61211 L 80.3535,-7.59619 L 80.3807,-7.57841
 L 80.4058,-7.55878 L 80.429,-7.53725 L 80.4501,-7.51385 L 80.4692,-7.48859 L 80.4863,-7.46146 L 80.5014,-7.43245
 L 80.5144,-7.40157 L 80.5255,-7.36882 L 80.5346,-7.3342 L 80.5416,-7.2977 L 80.5466,-7.25934 L 80.5496,-7.2191
 L 80.5506,-7.17699 L 80.5504,-7.15372 L 80.5496,-7.131 L 80.5484,-7.10886 L 80.5466,-7.08727 L 80.5443,-7.06625
 L 80.5415,-7.04581 L 80.5381,-7.02592 L 80.5343,-7.00662 L 80.53,-6.98787 L 80.5251,-6.9697 L 80.5198,-6.95209
 L 80.5139,-6.93504 L 80.5075,-6.91856 L 80.5006,-6.90265 L 80.4932,-6.88731 L 80.4853,-6.87254 L 80.4769,-6.85834
 L 80.468,-6.8447 L 80.4585,-6.83162 L 80.4486,-6.81911 L 80.4381,-6.80717 L 80.4271,-6.79579 L 80.4156,-6.78499
 L 80.4037,-6.7747 L 80.3912,-6.76486 L 80.3783,-6.75549 L 80.365,-6.74657 L 80.3511,-6.7381 L 80.3368,-6.7301
 L 80.3221,-6.72255 L 80.3069,-6.71545 L 80.2912,-6.70882 L 80.275,-6.70265 L 80.2584,-6.69693 L 80.2413,-6.69167
 L 80.2237,-6.68686 L 80.2057,-6.68253 L 80.1872,-6.67863 L 80.1683,-6.6752 L 80.1489,-6.67223 L 80.129,-6.66971
 L 80.1087,-6.66765 L 80.0879,-6.66605 L 80.0666,-6.6649 L 80.0448,-6.66422 L 80.0226,-6.66399 z
M 79.9794,-5.21115 L 79.9303,-5.21463 L 79.8836,-5.22044 L 79.8392,-5.22856 L 79.797,-5.23901 L 79.7571,-5.25177
 L 79.7195,-5.26686 L 79.6841,-5.28427 L 79.6511,-5.304 L 79.6203,-5.32607 L 79.5918,-5.35043 L 79.5656,-5.37714
 L 79.5416,-5.40614 L 79.52,-5.43748 L 79.5006,-5.47115 L 79.4835,-5.50713 L 79.4687,-5.54543 L 79.4562,-5.58606
 L 79.4459,-5.629 L 79.4379,-5.67427 L 79.4322,-5.72185 L 79.4288,-5.77176 L 79.4277,-5.82399 L 79.4279,-5.84674
 L 79.4288,-5.86905 L 79.4303,-5.89095 L 79.4324,-5.9124 L 79.435,-5.93344 L 79.4383,-5.95404 L 79.4421,-5.97423
 L 79.4465,-5.99397 L 79.4516,-6.01331 L 79.4572,-6.0322 L 79.4633,-6.05067 L 79.4701,-6.06871 L 79.4775,-6.08633
 L 79.4855,-6.10352 L 79.494,-6.12029 L 79.5032,-6.13661 L 79.5129,-6.15253 L 79.5232,-6.168 L 79.5341,-6.18306
 L 79.5456,-6.19768 L 79.5577,-6.21188 L 79.5704,-6.22565 L 79.5837,-6.239 L 79.5975,-6.25183 L 79.6119,-6.26411
 L 79.6267,-6.27582 L 79.6419,-6.28694 L 79.6576,-6.29752 L 79.6738,-6.3075 L 79.6904,-6.31693 L 79.7075,-6.32576
 L 79.7251,-6.33405 L 79.7431,-6.34175 L 79.7615,-6.34889 L 79.7804,-6.35545 L 79.7998,-6.36145 L 79.8196,-6.36687
 L 79.8399,-6.37172 L 79.8607,-6.37601 L 79.8819,-6.37971 L 79.9035,-6.38286 L 79.9256,-6.38542 L 79.9482,-6.38742
 L 79.9712,-6.38885 L 79.9947,-6.38971 L 80.0186,-6.39 L 80.0433,-6.38972 L 80.0674,-6.38893 L 80.0911,-6.38759
 L 80.1143,-6.38573 L 80.1369,-6.38333 L 80.1591,-6.3804 L 80.1809,-6.37694 L 80.2021,-6.37294 L 80.2229,-6.36841
 L 80.2431,-6.36334 L 80.2629,-6.35774 L 80.2822,-6.35161 L 80.3011,-6.34494 L 80.3194,-6.33775 L 80.3372,-6.33002
 L 80.3546,-6.32176 L 80.3715,-6.31296 L 80.3879,-6.30363 L 80.4038,-6.29378 L 80.4193,-6.28337 L 80.4342,-6.27245
 L 80.4487,-6.26099 L 80.4626,-6.24899 L 80.4762,-6.23656 L 80.4891,-6.22362 L 80.5014,-6.21016 L 80.5131,-6.19618
 L 80.5243,-6.1817 L 80.5348,-6.16669 L 80.5447,-6.15118 L 80.554,-6.13515 L 80.5627,-6.11861 L 80.5708,-6.10155
 L 80.5784,-6.08397 L 80.5853,-6.06589 L 80.5916,-6.04729 L 80.5973,-6.02817 L 80.6024,-6.00854 L 80.6069,-5.98839
 L 80.6108,-5.96774 L 80.6141,-5.94656 L 80.6168,-5.92488 L 80.6189,-5.90268 L 80.6204,-5.87996 L 80.6213,-5.85674
 L 80.6216,-5.83299 L 80.6214,-5.80507 L 80.6205,-5.7778 L 80.6192,-5.75121 L 80.6172,-5.72527 L 80.6147,-5.70001
 L 80.6117,-5.6754 L 80.6081,-5.65147 L 80.604,-5.6282 L 80.5993,-5.60559 L 80.594,-5.58365 L 80.5883,-5.56238
 L 80.5819,-5.54178 L 80.575,-5.52184 L 80.5676,-5.50255 L 80.5595,-5.48393 L 80.551,-5.46599 L 80.5419,-5.44872
 L 80.5322,-5.4321 L 80.522,-5.41614 L 80.5112,-5.40086 L 80.4999,-5.38623 L 80.4881,-5.37228 L 80.4756,-5.35899
 L 80.4627,-5.34631 L 80.4491,-5.33421 L 80.435,-5.32266 L 80.4202,-5.31168 L 80.4049,-5.30125 L 80.3891,-5.2914
 L 80.3726,-5.2821 L 80.3556,-5.27336 L 80.338,-5.2652 L 80.3198,-5.2576 L 80.301,-5.25055 L 80.2816,-5.24408
 L 80.2617,-5.23816 L 80.2412,-5.2328 L 80.2201,-5.22801 L 80.1985,-5.2238 L 80.1762,-5.22014 L 80.1534,-5.21704
 L 80.13,-5.21449 L 80.106,-5.21252 L 80.0815,-5.21112 L 80.0564,-5.21028 L 80.0306,-5.20999 z
M 0.0630646,-4.93674 L 0.104568,-4.93892 L 0.145172,-4.94258 L 0.18486,-4.94768 L 0.223648,-4.95425 L 0.261536,-4.96228
 L 0.298508,-4.97176 L 0.334564,-4.98271 L 0.36972,-4.99512 L 0.403976,-5.00896 L 0.437317,-5.02428 L 0.469742,-5.04106
 L 0.501282,-5.05931 L 0.531891,-5.07901 L 0.561615,-5.10017 L 0.590408,-5.12279 L 0.618317,-5.14687 L 0.645309,-5.17241
 L 0.671387,-5.1994 L 0.696564,-5.22786 L 0.720825,-5.25778 L 0.744186,-5.28915 L 0.766647,-5.32199 L 0.788162,-5.35622
 L 0.808731,-5.39174 L 0.828339,-5.42857 L 0.847,-5.46672 L 0.864685,-5.50616 L 0.881424,-5.54694 L 0.897217,-5.589
 L 0.912033,-5.63237 L 0.925903,-5.67706 L 0.938812,-5.72305 L 0.950775,-5.77036 L 0.961777,-5.81895 L 0.971817,-5.86888
 L 0.980911,-5.9201 L 0.989029,-5.97264 L 0.996216,-6.02647 L 1.00243,-6.08162 L 1.00769,-6.13808 L 1.01199,-6.19585
 L 1.01534,-6.25493 L 1.01773,-6.31531 L 1.01917,-6.377 L 1.01964,-6.43999 L 1.0192,-6.50409 L 1.01782,-6.56679
 L 1.01555,-6.62811 L 1.01236,-6.68805 L 1.00826,-6.74661 L 1.00325,-6.80379 L 0.997314,-6.85957 L 0.990494,-6.91397
 L 0.982742,-6.967 L 0.974091,-7.01863 L 0.964523,-7.06888 L 0.954041,-7.11775 L 0.942657,-7.16524 L 0.930359,-7.21135
 L 0.917145,-7.25606 L 0.903015,-7.29939 L 0.887985,-7.34134 L 0.87204,-7.38191 L 0.855179,-7.4211 L 0.837418,-7.45889
 L 0.818741,-7.49532 L 0.799149,-7.53035 L 0.778641,-7.564 L 0.757278,-7.59631 L 0.734894,-7.62721 L 0.711517,-7.65666
 L 0.687119,-7.68468 L 0.661728,-7.71126 L 0.63533,-7.73639 L 0.607925,-7.7601 L 0.579514,-7.78236 L 0.550095,-7.80319
 L 0.519669,-7.82259 L 0.488235,-7.84055 L 0.455795,-7.85707 L 0.422363,-7.87216 L 0.387909,-7.8858 L 0.352463,-7.89803
 L 0.31601,-7.9088 L 0.278549,-7.91814 L 0.240067,-7.92604 L 0.200592,-7.9325 L 0.160126,-7.93753 L 0.118637,-7.94112
 L 0.0761414,-7.94327 L 0.0326385,-7.94398 L -0.0120239,-7.94328 L -0.0556641,-7.94115 L -0.0982513,-7.93759 L -0.139771,-7.93262
 L -0.180237,-7.92622 L -0.21965,-7.91841 L -0.258026,-7.90916 L -0.295319,-7.8985 L -0.331573,-7.88641 L -0.366776,-7.87291
 L -0.400909,-7.85799 L -0.434006,-7.84164 L -0.466034,-7.82387 L -0.497009,-7.80469 L -0.526932,-7.78407 L -0.555801,-7.76204
 L -0.583618,-7.73857 L -0.610367,-7.7137 L -0.636078,-7.68741 L -0.660721,-7.65968 L -0.684311,-7.63054 L -0.706863,-7.59998
 L -0.728333,-7.56799 L -0.748749,-7.53467 L -0.768265,-7.49992 L -0.786865,-7.46373 L -0.804565,-7.42613 L -0.82135,-7.38708
 L -0.837219,-7.34662 L -0.852203,-7.30472 L -0.866257,-7.2614 L -0.879425,-7.21663 L -0.891663,-7.17046 L -0.903015,-7.12283
 L -0.913437,-7.07379 L -0.922974,-7.02332 L -0.931595,-6.97142 L -0.939301,-6.91809 L -0.946106,-6.86333 L -0.952011,-6.80714
 L -0.957001,-6.74953 L -0.961075,-6.69048 L -0.964264,-6.62999 L -0.966522,-6.56808 L -0.96788,-6.50476 L -0.968338,-6.43999
 L -0.96788,-6.37666 L -0.966476,-6.31465 L -0.964142,-6.25398 L -0.960876,-6.19464 L -0.956665,-6.13663 L -0.951538,-6.07994
 L -0.945465,-6.0246 L -0.938461,-5.97058 L -0.930527,-5.91789 L -0.921646,-5.86653 L -0.91185,-5.81651 L -0.901108,-5.76781
 L -0.889435,-5.72044 L -0.876831,-5.67441 L -0.863281,-5.62971 L -0.848816,-5.58633 L -0.833405,-5.5443 L -0.817062,-5.50359
 L -0.799789,-5.4642 L -0.78157,-5.42615 L -0.762436,-5.38943 L -0.742355,-5.35405 L -0.721344,-5.31999 L -0.69931,-5.28732
 L -0.676346,-5.25612 L -0.652466,-5.22635 L -0.62764,-5.19804 L -0.601883,-5.17119 L -0.575211,-5.14578 L -0.547592,-5.12183
 L -0.519058,-5.09932 L -0.489578,-5.07826 L -0.459183,-5.05867 L -0.427856,-5.04053 L -0.395599,-5.02382 L -0.362396,-5.00858
 L -0.328278,-4.99481 L -0.293228,-4.98247 L -0.257248,-4.97157 L -0.220337,-4.96214 L -0.182495,-4.95416 L -0.143723,-4.94762
 L -0.104019,-4.94254 L -0.0634003,-4.9389 L -0.0218353,-4.93674 L 0.0206451,-4.936 z
M -0.00326538,-5.23553 L -0.0305328,-5.23718 L -0.0571442,-5.23993 L -0.0830841,-5.24376 L -0.108368,-5.2487 L -0.132996,-5.25473
 L -0.156952,-5.26186 L -0.180252,-5.27008 L -0.202896,-5.2794 L -0.224869,-5.28981 L -0.246185,-5.30133 L -0.26683,-5.31393
 L -0.286819,-5.32764 L -0.306152,-5.34244 L -0.324814,-5.35834 L -0.342819,-5.37534 L -0.360168,-5.39342 L -0.376846,-5.41261
 L -0.392868,-5.43289 L -0.408234,-5.45427 L -0.422928,-5.47675 L -0.436966,-5.50032 L -0.450333,-5.52499 L -0.463013,-5.55084
 L -0.475128,-5.57796 L -0.486679,-5.60634 L -0.497665,-5.636 L -0.508087,-5.66692 L -0.517944,-5.6991 L -0.527237,-5.73254
 L -0.535965,-5.76726 L -0.544128,-5.80324 L -0.551743,-5.8405 L -0.558777,-5.87901 L -0.565262,-5.91879 L -0.571167,-5.95984
 L -0.576523,-6.00215 L -0.581314,-6.04575 L -0.585541,-6.09059 L -0.589203,-6.1367 L -0.5923,-6.18408 L -0.594833,-6.23273
 L -0.596802,-6.28265 L -0.598221,-6.33383 L -0.59906,-6.38628 L -0.599335,-6.43999 L -0.59906,-6.4953 L -0.598236,-6.54924
 L -0.596832,-6.60182 L -0.594894,-6.65302 L -0.592392,-6.70284 L -0.58934,-6.75128 L -0.585724,-6.79837 L -0.581558,-6.84407
 L -0.576828,-6.88841 L -0.571548,-6.93137 L -0.56572,-6.97296 L -0.559326,-7.01318 L -0.552383,-7.05202 L -0.544876,-7.08949
 L -0.536819,-7.1256 L -0.528198,-7.16032 L -0.519028,-7.19368 L -0.509308,-7.22566 L -0.499023,-7.25627 L -0.48819,-7.28551
 L -0.476791,-7.31339 L -0.464844,-7.33987 L -0.452347,-7.36499 L -0.439194,-7.38898 L -0.425323,-7.41191 L -0.410736,-7.43376
 L -0.395432,-7.45454 L -0.379395,-7.47427 L -0.36264,-7.49294 L -0.345169,-7.51053 L -0.326965,-7.52705 L -0.308044,-7.54251
 L -0.288406,-7.5569 L -0.268036,-7.57024 L -0.246964,-7.58249 L -0.225143,-7.59369 L -0.202621,-7.60381 L -0.179367,-7.61287
 L -0.15538,-7.62086 L -0.130692,-7.62781 L -0.10527,-7.63367 L -0.0791321,-7.63846 L -0.0522614,-7.6422 L -0.0246735,-7.64487
 L 0.00361633,-7.64645 L 0.0326385,-7.64699 L 0.0608978,-7.64645 L 0.0884552,-7.64484 L 0.115311,-7.64212 L 0.141449,-7.63834
 L 0.166901,-7.63348 L 0.191635,-7.62753 L 0.215683,-7.6205 L 0.239014,-7.6124 L 0.261642,-7.6032 L 0.283569,-7.59293
 L 0.304794,-7.58157 L 0.325317,-7.56914 L 0.345139,-7.55562 L 0.364258,-7.54103 L 0.38266,-7.52534 L 0.400375,-7.50859
 L 0.417374,-7.49075 L 0.433685,-7.47182 L 0.44928,-7.45181 L 0.464172,-7.43074 L 0.478363,-7.40857 L 0.491852,-7.38531
 L 0.504639,-7.36099 L 0.516815,-7.33554 L 0.528427,-7.30878 L 0.53952,-7.28067 L 0.550064,-7.25125 L 0.560059,-7.22049
 L 0.569519,-7.18842 L 0.578445,-7.155 L 0.586823,-7.12027 L 0.594666,-7.0842 L 0.601959,-7.04681 L 0.608719,-7.0081
 L 0.614929,-6.96805 L 0.620605,-6.92668 L 0.625748,-6.88399 L 0.630341,-6.83997 L 0.634399,-6.79462 L 0.637909,-6.74792
 L 0.640884,-6.69992 L 0.643326,-6.65059 L 0.645218,-6.59993 L 0.646561,-6.54794 L 0.647369,-6.49463 L 0.647644,-6.43999
 L 0.647354,-6.38728 L 0.6465,-6.33578 L 0.645081,-6.28548 L 0.643082,-6.23636 L 0.640503,-6.18845 L 0.637375,-6.14174
 L 0.633652,-6.09622 L 0.629379,-6.05191 L 0.624527,-6.00879 L 0.619095,-5.96687 L 0.613113,-5.92615 L 0.606537,-5.88663
 L 0.599411,-5.84831 L 0.59169,-5.81119 L 0.58342,-5.77525 L 0.57457,-5.74052 L 0.565155,-5.707 L 0.555161,-5.67467
 L 0.544601,-5.64354 L 0.533463,-5.6136 L 0.521759,-5.58487 L 0.509491,-5.55733 L 0.496643,-5.53099 L 0.483276,-5.50581
 L 0.469254,-5.48175 L 0.45459,-5.45882 L 0.43927,-5.43698 L 0.423294,-5.41629 L 0.406677,-5.3967 L 0.389404,-5.37823
 L 0.37149,-5.36089 L 0.352921,-5.34467 L 0.333694,-5.32956 L 0.313828,-5.31557 L 0.293304,-5.3027 L 0.272125,-5.29095
 L 0.250305,-5.28032 L 0.227829,-5.2708 L 0.204712,-5.26241 L 0.180939,-5.25514 L 0.156509,-5.24898 L 0.131439,-5.24394
 L 0.105713,-5.24002 L 0.0793457,-5.23723 L 0.0523224,-5.23555 L 0.0246429,-5.23499 z
M 111.959,-5.31099 L 111.263,-5.31099 L 111.263,-7.87999 L 110.926,-7.87999 L 110.249,-7.39299 L 110.249,-7.04799
 L 110.895,-7.53099 L 110.895,-5.31099 L 110.166,-5.31099 L 110.166,-5 L 111.959,-5 z
M 119.847,-5.31099 L 119.151,-5.31099 L 119.151,-7.87999 L 118.814,-7.87999 L 118.137,-7.39299 L 118.137,-7.04799
 L 118.783,-7.53099 L 118.783,-5.31099 L 118.054,-5.31099 L 118.054,-5 L 119.847,-5 z
M 109.998,-5.31099 L 109.302,-5.31099 L 109.302,-7.87999 L 108.965,-7.87999 L 108.288,-7.39299 L 108.288,-7.04799
 L 108.934,-7.53099 L 108.934,-5.31099 L 108.205,-5.31099 L 108.205,-5 L 109.998,-5 z
M 40.6586,-5.672 L 41.0606,-5.672 L 41.0606,-5.95999 L 40.6586,-5.95999 L 40.6586,-7.87999 L 40.2746,-7.87999
 L 38.9637,-5.95599 L 38.9637,-5.672 L 40.3126,-5.672 L 40.3126,-5 L 40.6586,-5 z
M 39.3017,-5.95999 L 39.3337,-6 L 39.4437,-6.14999 L 40.1767,-7.22699 L 40.1814,-7.23419 L 40.1865,-7.24225
 L 40.192,-7.25114 L 40.2011,-7.26608 L 40.2111,-7.28293 L 40.2183,-7.29521 L 40.2298,-7.31523 L 40.2423,-7.33716
 L 40.2602,-7.36909 L 40.28,-7.40491 L 40.2896,-7.42264 L 40.2976,-7.43753 L 40.3039,-7.4496 L 40.3086,-7.45885
 L 40.3116,-7.46527 L 40.3122,-7.4668 L 40.3126,-7.46799 L 40.3126,-5.95999 z
M 10.9786,-5.31099 L 10.2826,-5.31099 L 10.2826,-7.87999 L 9.94566,-7.87999 L 9.26866,-7.39299 L 9.26866,-7.04799
 L 9.91466,-7.53099 L 9.91466,-5.31099 L 9.18565,-5.31099 L 9.18565,-5 L 10.9786,-5 z
M 99.8473,-5.31099 L 99.1513,-5.31099 L 99.1513,-7.87999 L 98.8143,-7.87999 L 98.1373,-7.39299 L 98.1373,-7.04799
 L 98.7833,-7.53099 L 98.7833,-5.31099 L 98.0543,-5.31099 L 98.0543,-5 L 99.8473,-5 z
M 50.0337,-4.93651 L 50.074,-4.93803 L 50.1135,-4.94055 L 50.1523,-4.94408 L 50.1902,-4.94862 L 50.2274,-4.95418
 L 50.2637,-4.96074 L 50.2993,-4.96831 L 50.3341,-4.97688 L 50.3681,-4.98648 L 50.4013,-4.99709 L 50.4338,-5.00867
 L 50.4654,-5.02129 L 50.4963,-5.03491 L 50.5264,-5.04956 L 50.5556,-5.0652 L 50.5841,-5.08186 L 50.6119,-5.09952
 L 50.6388,-5.11819 L 50.6649,-5.13788 L 50.6903,-5.15857 L 50.7149,-5.18028 L 50.7386,-5.20299 L 50.7615,-5.22667
 L 50.7834,-5.2511 L 50.8042,-5.27628 L 50.8241,-5.3022 L 50.8429,-5.32887 L 50.8607,-5.35629 L 50.8775,-5.38446
 L 50.8932,-5.41338 L 50.908,-5.44305 L 50.9217,-5.47346 L 50.9344,-5.50462 L 50.9461,-5.53654 L 50.9568,-5.5692
 L 50.9665,-5.60262 L 50.9751,-5.63678 L 50.9827,-5.67168 L 50.9893,-5.70734 L 50.9949,-5.74374 L 50.9995,-5.7809
 L 51.0031,-5.8188 L 51.0056,-5.85745 L 51.0071,-5.89685 L 51.0076,-5.937 L 51.0072,-5.97226 L 51.0058,-6.00696
 L 51.0034,-6.04106 L 51,-6.0746 L 50.9958,-6.10754 L 50.9906,-6.13991 L 50.9844,-6.17168 L 50.9773,-6.20288
 L 50.9692,-6.23351 L 50.9602,-6.26353 L 50.9502,-6.29298 L 50.9393,-6.32185 L 50.9275,-6.35014 L 50.9146,-6.37785
 L 50.9009,-6.40497 L 50.8862,-6.4315 L 50.8705,-6.45747 L 50.8539,-6.48285 L 50.8364,-6.50764 L 50.8179,-6.53185
 L 50.7984,-6.55548 L 50.778,-6.57852 L 50.7566,-6.601 L 50.7345,-6.62268 L 50.7117,-6.64342 L 50.6883,-6.66318
 L 50.6642,-6.68198 L 50.6394,-6.69981 L 50.614,-6.71667 L 50.588,-6.73259 L 50.5613,-6.74753 L 50.534,-6.76151
 L 50.5061,-6.77452 L 50.4774,-6.78658 L 50.4482,-6.79767 L 50.4183,-6.80779 L 50.3877,-6.81694 L 50.3565,-6.82513
 L 50.3247,-6.83237 L 50.2922,-6.83864 L 50.259,-6.84395 L 50.2253,-6.84828 L 50.1908,-6.85165 L 50.1557,-6.85406
 L 50.12,-6.85551 L 50.0836,-6.85599 L 50.0532,-6.85565 L 50.0231,-6.85461 L 49.9935,-6.85287 L 49.9644,-6.85046
 L 49.9356,-6.84735 L 49.9073,-6.84354 L 49.8794,-6.83904 L 49.852,-6.83385 L 49.825,-6.82797 L 49.7984,-6.8214
 L 49.7723,-6.81413 L 49.7466,-6.80618 L 49.7214,-6.79753 L 49.6965,-6.78819 L 49.6721,-6.77815 L 49.6482,-6.76743
 L 49.6247,-6.75601 L 49.6016,-6.74391 L 49.5789,-6.73111 L 49.5567,-6.71762 L 49.5349,-6.70343 L 49.5136,-6.68855
 L 49.4927,-6.67299 L 49.5467,-7.56898 L 50.8406,-7.56898 L 50.8406,-7.87999 L 49.2137,-7.87999 L 49.1187,-6.351
 L 49.4757,-6.351 L 49.4868,-6.36061 L 49.4979,-6.36998 L 49.509,-6.3791 L 49.5202,-6.38799 L 49.5313,-6.39662
 L 49.5424,-6.405 L 49.5536,-6.41315 L 49.5647,-6.42104 L 49.5758,-6.4287 L 49.587,-6.4361 L 49.5981,-6.44325
 L 49.6092,-6.45016 L 49.6204,-6.45683 L 49.6315,-6.46326 L 49.6426,-6.46944 L 49.6537,-6.47536 L 49.6649,-6.48105
 L 49.676,-6.48648 L 49.6871,-6.49168 L 49.6983,-6.49663 L 49.7094,-6.50133 L 49.7205,-6.50578 L 49.7317,-6.50999
 L 49.7428,-6.51399 L 49.7541,-6.51781 L 49.7654,-6.52145 L 49.7768,-6.52492 L 49.7883,-6.52821 L 49.7998,-6.53131
 L 49.8114,-6.53424 L 49.8231,-6.537 L 49.8349,-6.53958 L 49.8467,-6.54198 L 49.8587,-6.5442 L 49.8707,-6.54625
 L 49.8828,-6.54811 L 49.8949,-6.54979 L 49.9071,-6.5513 L 49.9194,-6.55264 L 49.9318,-6.55379 L 49.9443,-6.55476
 L 49.9568,-6.55557 L 49.9694,-6.5562 L 49.9821,-6.55664 L 49.9948,-6.5569 L 50.0076,-6.55699 L 50.0322,-6.55666
 L 50.0563,-6.55568 L 50.08,-6.55403 L 50.1032,-6.55173 L 50.126,-6.54877 L 50.1483,-6.54515 L 50.1702,-6.54088
 L 50.1916,-6.53593 L 50.2126,-6.53035 L 50.2332,-6.52409 L 50.2533,-6.5172 L 50.2729,-6.50963 L 50.2921,-6.5014
 L 50.3109,-6.49252 L 50.3292,-6.48299 L 50.3471,-6.47279 L 50.3645,-6.46193 L 50.3815,-6.45042 L 50.398,-6.43825
 L 50.4141,-6.42543 L 50.4297,-6.41194 L 50.4449,-6.3978 L 50.4596,-6.383 L 50.4739,-6.36775 L 50.4876,-6.35208
 L 50.5006,-6.33603 L 50.513,-6.31955 L 50.5247,-6.30267 L 50.5359,-6.28539 L 50.5463,-6.26768 L 50.5562,-6.24957
 L 50.5654,-6.23106 L 50.574,-6.21214 L 50.5819,-6.19281 L 50.5892,-6.17307 L 50.5959,-6.15292 L 50.6019,-6.13237
 L 50.6073,-6.1114 L 50.6121,-6.09003 L 50.6162,-6.06825 L 50.6197,-6.04607 L 50.6226,-6.02347 L 50.6248,-6.00046
 L 50.6264,-5.97705 L 50.6273,-5.95322 L 50.6276,-5.92899 L 50.6273,-5.90108 L 50.6264,-5.8737 L 50.6248,-5.84683
 L 50.6226,-5.8205 L 50.6198,-5.79469 L 50.6163,-5.76941 L 50.6122,-5.74464 L 50.6074,-5.72041 L 50.6021,-5.69672
 L 50.5961,-5.67352 L 50.5894,-5.65088 L 50.5822,-5.62874 L 50.5743,-5.60713 L 50.5658,-5.58606 L 50.5566,-5.56551
 L 50.5468,-5.54547 L 50.5364,-5.52597 L 50.5254,-5.50699 L 50.5137,-5.48854 L 50.5014,-5.47061 L 50.4884,-5.45322
 L 50.4749,-5.43634 L 50.4606,-5.42 L 50.446,-5.40425 L 50.4308,-5.38922 L 50.4151,-5.37488 L 50.399,-5.36124
 L 50.3824,-5.3483 L 50.3652,-5.33606 L 50.3477,-5.32452 L 50.3296,-5.31367 L 50.311,-5.30354 L 50.2919,-5.2941
 L 50.2724,-5.28535 L 50.2523,-5.27731 L 50.2318,-5.26996 L 50.2108,-5.26332 L 50.1893,-5.25737 L 50.1673,-5.25212
 L 50.1448,-5.24759 L 50.1218,-5.24373 L 50.0984,-5.24059 L 50.0744,-5.23814 L 50.05,-5.23639 L 50.0251,-5.23534
 L 49.9997,-5.23499 L 49.9587,-5.23579 L 49.9191,-5.2382 L 49.8809,-5.24222 L 49.844,-5.24785 L 49.8085,-5.25508
 L 49.7744,-5.26392 L 49.7417,-5.27435 L 49.7104,-5.28641 L 49.6804,-5.30006 L 49.6518,-5.31534 L 49.6245,-5.3322
 L 49.5986,-5.35068 L 49.5741,-5.37077 L 49.551,-5.39246 L 49.5293,-5.41576 L 49.5089,-5.44066 L 49.4899,-5.46718
 L 49.4722,-5.4953 L 49.456,-5.52502 L 49.4411,-5.55635 L 49.4276,-5.58929 L 49.4154,-5.62384 L 49.4047,-5.65999
 L 49.0357,-5.61699 L 49.0417,-5.5885 L 49.0483,-5.56061 L 49.0557,-5.53329 L 49.0637,-5.50658 L 49.0724,-5.48045
 L 49.0818,-5.45491 L 49.0919,-5.42996 L 49.1027,-5.40561 L 49.1141,-5.38184 L 49.1262,-5.35866 L 49.139,-5.33606
 L 49.1525,-5.31407 L 49.1666,-5.29265 L 49.1815,-5.27184 L 49.197,-5.2516 L 49.2132,-5.23196 L 49.2301,-5.21291
 L 49.2477,-5.19446 L 49.2659,-5.17657 L 49.2848,-5.1593 L 49.3044,-5.14261 L 49.3247,-5.12651 L 49.3457,-5.11099
 L 49.3673,-5.0961 L 49.3896,-5.08188 L 49.4125,-5.06831 L 49.4359,-5.05542 L 49.4599,-5.04318 L 49.4846,-5.0316
 L 49.5098,-5.02068 L 49.5355,-5.01042 L 49.5619,-5.00084 L 49.5889,-4.99191 L 49.6164,-4.98364 L 49.6445,-4.97603
 L 49.6733,-4.96909 L 49.7026,-4.9628 L 49.7325,-4.95718 L 49.7629,-4.95222 L 49.794,-4.94792 L 49.8256,-4.94427
 L 49.8579,-4.9413 L 49.8907,-4.93898 L 49.9241,-4.93733 L 49.9581,-4.93634 L 49.9927,-4.936 z
M 69.9918,-5.03464 L 69.9923,-5.06918 L 69.9932,-5.10362 L 69.9944,-5.13795 L 69.9959,-5.1722 L 69.9978,-5.20633
 L 70,-5.24036 L 70.0025,-5.27429 L 70.0054,-5.30812 L 70.0087,-5.34184 L 70.0122,-5.37547 L 70.0161,-5.409
 L 70.0204,-5.44241 L 70.025,-5.47572 L 70.0299,-5.50894 L 70.0352,-5.54205 L 70.0408,-5.57507 L 70.0468,-5.60797
 L 70.0531,-5.64078 L 70.0597,-5.67349 L 70.0667,-5.70609 L 70.074,-5.73859 L 70.0816,-5.771 L 70.0897,-5.80336
 L 70.0981,-5.83577 L 70.1069,-5.86821 L 70.116,-5.90068 L 70.1254,-5.9332 L 70.1352,-5.96576 L 70.1453,-5.99835
 L 70.1557,-6.03099 L 70.1665,-6.06366 L 70.1776,-6.09636 L 70.189,-6.1291 L 70.2008,-6.1619 L 70.213,-6.1947
 L 70.2254,-6.22757 L 70.2382,-6.26047 L 70.2513,-6.2934 L 70.2648,-6.32637 L 70.2786,-6.35938 L 70.2927,-6.39243
 L 70.3072,-6.42551 L 70.322,-6.45863 L 70.3372,-6.49179 L 70.3526,-6.52499 L 70.3689,-6.55885 L 70.3861,-6.59381
 L 70.4043,-6.62987 L 70.4234,-6.66704 L 70.4435,-6.70531 L 70.4646,-6.74469 L 70.4867,-6.78517 L 70.5098,-6.82675
 L 70.5338,-6.86945 L 70.5588,-6.91324 L 70.5848,-6.95813 L 70.6117,-7.00414 L 70.6397,-7.05124 L 70.6686,-7.09944
 L 70.6985,-7.14876 L 70.7293,-7.19917 L 70.7612,-7.25069 L 70.794,-7.30331 L 70.8278,-7.35704 L 70.8625,-7.41188
 L 70.8983,-7.4678 L 70.935,-7.52484 L 70.9726,-7.58299 L 70.9726,-7.87999 L 69.0817,-7.87999 L 69.0817,-7.56898
 L 70.6196,-7.56898 L 70.5728,-7.50012 L 70.5272,-7.43196 L 70.4828,-7.36449 L 70.4395,-7.29771 L 70.3974,-7.23164
 L 70.3565,-7.16628 L 70.3168,-7.10161 L 70.2783,-7.03763 L 70.2409,-6.97437 L 70.2047,-6.91179 L 70.1697,-6.84991
 L 70.1359,-6.78874 L 70.1032,-6.72827 L 70.0718,-6.66849 L 70.0415,-6.60942 L 70.0124,-6.55104 L 69.9845,-6.49336
 L 69.9577,-6.43639 L 69.9321,-6.38011 L 69.9077,-6.32452 L 69.8845,-6.26965 L 69.8625,-6.21547 L 69.8417,-6.16199
 L 69.8219,-6.10905 L 69.8031,-6.05635 L 69.7851,-6.00385 L 69.768,-5.95157 L 69.7518,-5.89952 L 69.7364,-5.84767
 L 69.7219,-5.79607 L 69.7083,-5.74466 L 69.6956,-5.69348 L 69.6838,-5.64252 L 69.6728,-5.59178 L 69.6627,-5.54126
 L 69.6535,-5.49095 L 69.6452,-5.44087 L 69.6377,-5.39101 L 69.6311,-5.34137 L 69.6254,-5.29195 L 69.6206,-5.24274
 L 69.6167,-5.19374 L 69.6136,-5.14497 L 69.6114,-5.09644 L 69.6101,-5.0481 L 69.6097,-5 L 69.9917,-5
 z
M 120.1,-4 L 120,-4 L 120,-0 L 120.1,-0 z
M 10.1,-4 L 10,-4 L 10,-0 L 10.1,-0 z
M 20.1,-4 L 20,-4 L 20,-0 L 20.1,-0 z
M 30.1,-4 L 30,-4 L 30,-0 L 30.1,-0 z
M 40.1,-4 L 40,-4 L 40,-0 L 40.1,-0 z
M 50.1,-4 L 50,-4 L 50,-0 L 50.1,-0 z
M 0.0999908,-4 L 0,-4 L 0,-0 L 0.0999908,-0 z
M 70.1,-4 L 70,-4 L 70,-0 L 70.1,-0 z
M 80.1,-4 L 80,-4 L 80,-0 L 80.1,-0 z
M 90.1,-4 L 90,-4 L 90,-0 L 90.1,-0 z
M 100.1,-4 L 100,-4 L 100,-0 L 100.1,-0 z
M 110.1,-4 L 110,-4 L 110,-0 L 110.1,-0 z
M 60.1,-4 L 60,-4 L 60,-0 L 60.1,-0 z
M 35.1,-3 L 35,-3 L 35,-0 L 35.1,-0 z
M 15.1,-3 L 15,-3 L 15,-0 L 15.1,-0 z
M 95.1,-3 L 95,-3 L 95,-0 L 95.1,-0 z
M 65.1,-3 L 65,-3 L 65,-0 L 65.1,-0 z
M 115.1,-3 L 115,-3 L 115,-0 L 115.1,-0 z
M 75.1,-3 L 75,-3 L 75,-0 L 75.1,-0 z
M 5.09999,-3 L 5,-3 L 5,-0 L 5.09999,-0 z
M 25.1,-3 L 25,-3 L 25,-0 L 25.1,-0 z
M 85.1,-3 L 85,-3 L 85,-0 L 85.1,-0 z
M 105.1,-3 L 105,-3 L 105,-0 L 105.1,-0 z
M 55.1,-3 L 55,-3 L 55,-0 L 55.1,-0 z
M 45.1,-3 L 45,-3 L 45,-0 L 45.1,-0 z
M 23.1,-2 L 23,-2 L 23,-0 L 23.1,-0 z
M 56.1,-2 L 56,-2 L 56,-0 L 56.1,-0 z
M 22.1,-2 L 22,-2 L 22,-0 L 22.1,-0 z
M 21.1,-2 L 21,-2 L 21,-0 L 21.1,-0 z
M 11.1,-2 L 11,-2 L 11,-0 L 11.1,-0 z
M 19.1,-2 L 19,-2 L 19,-0 L 19.1,-0 z
M 18.1,-2 L 18,-2 L 18,-0 L 18.1,-0 z
M 17.1,-2 L 17,-2 L 17,-0 L 17.1,-0 z
M 16.1,-2 L 16,-2 L 16,-0 L 16.1,-0 z
M 14.1,-2 L 14,-2 L 14,-0 L 14.1,-0 z
M 13.1,-2 L 13,-2 L 13,-0 L 13.1,-0 z
M 39.1,-2 L 39,-2 L 39,-0 L 39.1,-0 z
M 24.1,-2 L 24,-2 L 24,-0 L 24.1,-0 z
M 26.1,-2 L 26,-2 L 26,-0 L 26.1,-0 z
M 42.1,-2 L 42,-2 L 42,-0 L 42.1,-0 z
M 28.1,-2 L 28,-2 L 28,-0 L 28.1,-0 z
M 29.1,-2 L 29,-2 L 29,-0 L 29.1,-0 z
M 31.1,-2 L 31,-2 L 31,-0 L 31.1,-0 z
M 32.1,-2 L 32,-2 L 32,-0 L 32.1,-0 z
M 33.1,-2 L 33,-2 L 33,-0 L 33.1,-0 z
M 34.1,-2 L 34,-2 L 34,-0 L 34.1,-0 z
M 36.1,-2 L 36,-2 L 36,-0 L 36.1,-0 z
M 37.1,-2 L 37,-2 L 37,-0 L 37.1,-0 z
M 38.1,-2 L 38,-2 L 38,-0 L 38.1,-0 z
M 6.09999,-2 L 6,-2 L 6,-0 L 6.09999,-0 z
M 43.1,-2 L 43,-2 L 43,-0 L 43.1,-0 z
M 44.1,-2 L 44,-2 L 44,-0 L 44.1,-0 z
M 46.1,-2 L 46,-2 L 46,-0 L 46.1,-0 z
M 47.1,-2 L 47,-2 L 47,-0 L 47.1,-0 z
M 48.1,-2 L 48,-2 L 48,-0 L 48.1,-0 z
M 49.1,-2 L 49,-2 L 49,-0 L 49.1,-0 z
M 8.09999,-2 L 8,-2 L 8,-0 L 8.09999,-0 z
M 51.1,-2 L 51,-2 L 51,-0 L 51.1,-0 z
M 52.1,-2 L 52,-2 L 52,-0 L 52.1,-0 z
M 53.1,-2 L 53,-2 L 53,-0 L 53.1,-0 z
M 54.1,-2 L 54,-2 L 54,-0 L 54.1,-0 z
M 69.1,-2 L 69,-2 L 69,-0 L 69.1,-0 z
M 57.1,-2 L 57,-2 L 57,-0 L 57.1,-0 z
M 58.1,-2 L 58,-2 L 58,-0 L 58.1,-0 z
M 59.1,-2 L 59,-2 L 59,-0 L 59.1,-0 z
M 7.09999,-2 L 7,-2 L 7,-0 L 7.09999,-0 z
M 61.1,-2 L 61,-2 L 61,-0 L 61.1,-0 z
M 62.1,-2 L 62,-2 L 62,-0 L 62.1,-0 z
M 63.1,-2 L 63,-2 L 63,-0 L 63.1,-0 z
M 64.1,-2 L 64,-2 L 64,-0 L 64.1,-0 z
M 12.1,-2 L 12,-2 L 12,-0 L 12.1,-0 z
M 67.1,-2 L 67,-2 L 67,-0 L 67.1,-0 z
M 68.1,-2 L 68,-2 L 68,-0 L 68.1,-0 z
M 81.1,-2 L 81,-2 L 81,-0 L 81.1,-0 z
M 119.1,-2 L 119,-2 L 119,-0 L 119.1,-0 z
M 1.09999,-2 L 1,-2 L 1,-0 L 1.09999,-0 z
M 107.1,-2 L 107,-2 L 107,-0 L 107.1,-0 z
M 71.1,-2 L 71,-2 L 71,-0 L 71.1,-0 z
M 72.1,-2 L 72,-2 L 72,-0 L 72.1,-0 z
M 73.1,-2 L 73,-2 L 73,-0 L 73.1,-0 z
M 74.1,-2 L 74,-2 L 74,-0 L 74.1,-0 z
M 76.1,-2 L 76,-2 L 76,-0 L 76.1,-0 z
M 77.1,-2 L 77,-2 L 77,-0 L 77.1,-0 z
M 78.1,-2 L 78,-2 L 78,-0 L 78.1,-0 z
M 79.1,-2 L 79,-2 L 79,-0 L 79.1,-0 z
M 118.1,-2 L 118,-2 L 118,-0 L 118.1,-0 z
M 96.1,-2 L 96,-2 L 96,-0 L 96.1,-0 z
M 83.1,-2 L 83,-2 L 83,-0 L 83.1,-0 z
M 84.1,-2 L 84,-2 L 84,-0 L 84.1,-0 z
M 82.1,-2 L 82,-2 L 82,-0 L 82.1,-0 z
M 92.1,-2 L 92,-2 L 92,-0 L 92.1,-0 z
M 91.1,-2 L 91,-2 L 91,-0 L 91.1,-0 z
M 86.1,-2 L 86,-2 L 86,-0 L 86.1,-0 z
M 87.1,-2 L 87,-2 L 87,-0 L 87.1,-0 z
M 88.1,-2 L 88,-2 L 88,-0 L 88.1,-0 z
M 89.1,-2 L 89,-2 L 89,-0 L 89.1,-0 z
M 4.09999,-2 L 4,-2 L 4,-0 L 4.09999,-0 z
M 104.1,-2 L 104,-2 L 104,-0 L 104.1,-0 z
M 41.1,-2 L 41,-2 L 41,-0 L 41.1,-0 z
M 27.1,-2 L 27,-2 L 27,-0 L 27.1,-0 z
M 94.1,-2 L 94,-2 L 94,-0 L 94.1,-0 z
M 66.1,-2 L 66,-2 L 66,-0 L 66.1,-0 z
M 97.1,-2 L 97,-2 L 97,-0 L 97.1,-0 z
M 98.1,-2 L 98,-2 L 98,-0 L 98.1,-0 z
M 99.1,-2 L 99,-2 L 99,-0 L 99.1,-0 z
M 3.09999,-2 L 3,-2 L 3,-0 L 3.09999,-0 z
M 101.1,-2 L 101,-2 L 101,-0 L 101.1,-0 z
M 102.1,-2 L 102,-2 L 102,-0 L 102.1,-0 z
M 103.1,-2 L 103,-2 L 103,-0 L 103.1,-0 z
M 9.09999,-2 L 9,-2 L 9,-0 L 9.09999,-0 z
M 106.1,-2 L 106,-2 L 106,-0 L 106.1,-0 z
M 93.1,-2 L 93,-2 L 93,-0 L 93.1,-0 z
M 108.1,-2 L 108,-2 L 108,-0 L 108.1,-0 z
M 109.1,-2 L 109,-2 L 109,-0 L 109.1,-0 z
M 2.09999,-2 L 2,-2 L 2,-0 L 2.09999,-0 z
M 111.1,-2 L 111,-2 L 111,-0 L 111.1,-0 z
M 112.1,-2 L 112,-2 L 112,-0 L 112.1,-0 z
M 113.1,-2 L 113,-2 L 113,-0 L 113.1,-0 z
M 114.1,-2 L 114,-2 L 114,-0 L 114.1,-0 z
M 116.1,-2 L 116,-2 L 116,-0 L 116.1,-0 z
M 117.1,-2 L 117,-2 L 117,-0 L 117.1,-0 z
" stroke="black" fill="lightgray" stroke-width="0.5"/>
</svg>
